<?xml version="1.0" encoding="UTF-8" standalone="no"?>
<svg
   version="1.1"
   width="430"
   height="510"
   id="svg167"
   sodipodi:docname="logo1.svg"
   inkscape:version="1.4 (86a8ad7, 2024-10-11)"
   xmlns:inkscape="http://www.inkscape.org/namespaces/inkscape"
   xmlns:sodipodi="http://sodipodi.sourceforge.net/DTD/sodipodi-0.dtd"
   xmlns="http://www.w3.org/2000/svg"
   xmlns:svg="http://www.w3.org/2000/svg">
  <defs
     id="defs167" />
  <sodipodi:namedview
     id="namedview167"
     pagecolor="#ffffff"
     bordercolor="#000000"
     borderopacity="0.25"
     inkscape:showpageshadow="2"
     inkscape:pageopacity="0.0"
     inkscape:pagecheckerboard="0"
     inkscape:deskcolor="#d1d1d1"
     inkscape:zoom="2.2792968"
     inkscape:cx="236.91518"
     inkscape:cy="159.04028"
     inkscape:window-width="2560"
     inkscape:window-height="1369"
     inkscape:window-x="2552"
     inkscape:window-y="-8"
     inkscape:window-maximized="1"
     inkscape:current-layer="svg167" />
  <path
     d="m 0,0 c 337.92,0 675.84,0 1024,0 0,337.92 0,675.84 0,1024 -337.92,0 -675.84,0 -1024,0 C 0,686.08 0,348.16 0,0 Z"
     fill="#F9F0E2"
     id="path1"
     style="fill:#f9f0e2;fill-opacity:0" />
  <path
     d="m 233.33984,18.914062 c 2.93445,2.301023 5.32866,4.840031 7.84766,7.585938 2.95925,3.30904 2.95925,3.30904 6.89844,4.91406 C 250.13748,31.11404 252.01439,30.59138 254,30 c 10.57841,-1.25507 20.3999,2.71515 28.75,9.03125 7.32678,6.41093 13.2645,15.46381 14.55469,25.28906 C 297.3125,66.25 297.3125,66.25 297,69 c 0.9075,-0.33 1.815,-0.66 2.75,-1 11.14077,-3.11583 23.53687,-0.90343 33.5,4.6875 11.16549,7.3184 16.74479,16.69797 20.75,29.3125 0.75023,0.0258 1.50047,0.0516 2.27344,0.0781 11.48157,0.63626 20.38383,3.81132 28.72656,11.92188 8.96754,10.51727 10.52208,19.40653 10,33 0.73348,0.26812 1.46695,0.53625 2.22266,0.8125 8.58043,3.66871 13.74547,9.95097 17.77734,18.1875 1.18856,3.56567 1.23158,6.84787 1.25,10.5625 0.005,0.71801 0.0108,1.43602 0.0164,2.17578 -0.0396,4.24253 -0.48972,7.73378 -1.95386,11.76172 -1.55786,4.34181 -0.99303,6.23419 0.90234,10.32031 2.9137,8.08876 0.764,18.39049 -2.21484,26.17969 -2.26305,4.14016 -4.72743,8.3986 -8.64592,11.15982 -4.96251,3.55804 -6.37018,6.69715 -7.4704,12.62729 -0.15884,1.019 -0.31768,2.03801 -0.48134,3.08789 -0.19328,1.08861 -0.38656,2.17723 -0.5857,3.29883 C 395.18372,260.7784 394.592,264.3885 394,268 c -0.4374,2.53429 -0.87739,5.06814 -1.31982,7.60156 -1.28696,7.41987 -2.5297,14.84661 -3.76426,22.27535 -1.08127,6.49547 -2.17485,12.98889 -3.26748,19.48246 -0.11757,0.69938 -0.23514,1.39875 -0.35627,2.11932 -1.78403,10.60658 -3.63793,21.19712 -5.60467,31.77131 -2.05676,11.06045 -3.91267,22.14174 -5.6875,33.25 -1.83783,11.47315 -3.70936,22.93874 -5.74805,34.37817 -0.246,1.38476 -0.4893,2.76999 -0.72949,4.15577 C 363.16768,448.08632 363.16768,448.08632 355,457 c -0.54012,0.64195 -1.08023,1.28391 -1.63672,1.94531 C 337.52817,476.46355 311.10039,482.96647 289,488 c -0.84579,0.19578 -1.69157,0.39155 -2.56299,0.59326 -24.98917,5.65132 -50.17116,6.68519 -75.68701,6.71924 -1.08565,0.004 -2.1713,0.007 -3.28986,0.0109 C 193.84656,495.34756 180.49742,494.81178 167,493 c -1.10569,-0.14591 -2.21139,-0.29181 -3.35059,-0.44214 -32.65292,-4.62412 -69.29019,-12.01751 -91.77441,-38.01489 -6.72113,-9.66162 -7.64731,-21.84079 -9.48767,-33.17529 -0.76175,-4.65644 -1.55027,-9.30843 -2.33264,-13.96143 -1.04734,-6.23899 -2.09024,-12.47861 -3.11304,-18.72168 C 54.76782,375.42923 52.44997,362.20706 50,349 c -0.23727,-1.28149 -0.47454,-2.56298 -0.71899,-3.8833 -0.40111,-2.15896 -0.80313,-4.31775 -1.2063,-6.47632 C 44.44777,319.2161 41.11031,299.74806 37.8476,280.2598 37.53673,278.40334 37.22542,276.54695 36.91364,274.69064 35.1437,264.14328 33.44164,253.59817 32,243 31.38052,242.8628 30.76105,242.72559 30.1228,242.58423 24.0536,240.91389 19.04809,234.57482 16.03125,229.28516 11.80474,219.9196 9.78649,208.27545 13.4375,198.4375 13.95312,197.30313 14.46875,196.16875 15,195 c 1.23079,-3.69238 0.6026,-4.35376 -0.9375,-7.8125 -3.32546,-8.71778 -3.5126,-18.43783 -0.0352,-27.17188 C 18.61207,150.51475 25.33663,142.60736 35,138 c 2.32235,-0.70396 4.65463,-1.37701 7,-2 -0.0348,-0.9668 -0.0696,-1.93359 -0.10547,-2.92969 -0.29697,-14.28304 2.56489,-24.0078 12.23047,-34.75781 7.88948,-7.57179 17.50276,-10.49699 28.125,-10.375 1.11762,0.007 1.11762,0.007 2.25781,0.0137 C 86.33858,87.9629 88.1693,87.9809 90,88 89.89688,86.7625 89.79375,85.525 89.6875,84.25 89.7042,73.61807 95.86083,64.28742 103.03125,56.91016 112.57075,47.8913 123.35842,43.58322 136.4375,43.75 c 1.1088,0.006 1.1088,0.006 2.23999,0.0117 5.343,0.0846 10.173,0.74024 15.32251,2.23828 0.20754,-0.61746 0.41508,-1.23492 0.62891,-1.87109 4.50497,-12.38397 13.59582,-22.794283 25.30859,-29.00391 18.27757,-8.176807 36.55913,-7.310496 53.40234,3.789062 z"
     fill="#361d08"
     id="path2" />
  <path
     d="M 221.48437,29.37109 C 222.31453,29.90863 223.14469,30.44617 224,31 c 0.60328,0.38285 1.20656,0.7657 1.82812,1.16016 4.12762,3.03053 6.77435,7.32357 9.5586,11.53515 1.43182,2.04546 2.66184,3.75171 4.61328,5.30469 4.00119,-0.15691 7.32907,-1.07274 11,-2.5625 5.60995,-2.17507 10.00463,-2.03635 15.5625,0.25 7.30441,3.56525 11.3542,7.75446 14.4375,15.3125 2.33899,7.01698 2.20517,16.42019 -1,23.125 -0.36352,0.68449 -0.72703,1.36898 -1.10156,2.07422 C 277.71245,89.57635 277.52626,91.39442 278,94 c 1.92711,2.30101 1.92711,2.30101 5.25,2.625 3.68688,-0.23045 3.68688,-0.23045 5.33203,-2.27344 1.00148,-1.42162 1.98155,-2.85854 2.94141,-4.30859 C 294.23447,86.29199 297.62543,84.45819 302,83 c 9.86881,-0.73774 20.18133,-0.93089 28.125,5.80078 5.53398,5.9375 8.24652,11.67419 8.04102,19.75977 -0.0342,0.74314 -0.0683,1.48629 -0.10352,2.25195 -0.10926,2.75003 -0.13002,5.43105 -0.0625,8.1875 1.85061,2.26441 1.85061,2.26441 4.6875,2.3125 3.41071,-0.14067 3.41071,-0.14067 6.625,-1.8125 5.82073,-2.36775 11.00087,-2.28478 16.9375,-0.25 5.44609,2.33404 9.10537,5.36841 11.96875,10.66797 1.46028,3.89163 1.61535,7.95929 1.78125,12.08203 -0.69867,0.32613 -1.39734,0.65227 -2.11719,0.98828 -0.91008,0.43699 -1.82015,0.87399 -2.75781,1.32422 -1.35738,0.64389 -1.35738,0.64389 -2.74219,1.30078 -2.6473,1.30666 -2.6473,1.30666 -4.38281,4.38672 0.18233,3.82749 0.18233,3.82749 2,7 2.18591,0.13347 4.37403,0.23127 6.5625,0.3125 6.07467,0.40087 10.43605,1.2133 15.4375,4.6875 0.56332,0.38414 1.12664,0.76828 1.70703,1.16406 3.70457,2.79421 5.80679,5.45995 7.29297,9.83594 0.70123,5.97022 0.53154,10.93813 -3,16 -7.22918,7.4099 -17.30948,10.22661 -26.9375,13.3125 -1.24366,0.40013 -1.24366,0.40013 -2.51245,0.80835 -0.78867,0.245 -1.57733,0.49 -2.38989,0.74243 -0.70504,0.21954 -1.41008,0.43909 -2.13648,0.66528 C 362,205 362,205 358,205 c 0.46643,-3.73148 1.03789,-7.25617 2.0625,-10.875 1.94314,-7.64006 1.54681,-15.04096 -2.0625,-22.125 -4.98735,-7.53727 -11.51933,-12.00548 -20,-15 -3.96224,-0.67583 -7.26017,-0.22195 -11.125,0.9375 C 324,158 324,158 322.50781,156.61328 c -1.02158,-1.26242 -2.02907,-2.53635 -3.02344,-3.82031 -2.73193,-3.2999 -5.60906,-4.60015 -9.83984,-5.03516 -5.91602,-0.1611 -11.4898,0.20688 -16.58203,3.49219 -1.58197,2.6056 -1.32125,4.77434 -1.0625,7.75 0.33,0.33 0.66,0.66 1,1 1.89659,-0.0325 3.7926,-0.10126 5.6875,-0.1875 5.57411,-0.053 8.2216,0.41957 12.3125,4.1875 2,3 2,3 2.5,6.5625 0.15848,3.49462 0.15848,3.49462 2.5,5.4375 4.39838,-0.0862 7.11427,-0.87226 10.5,-3.5625 2.6561,-2.04407 3.56771,-2.44819 7.0625,-3 5.42937,0.88844 8.8006,3.52121 12.3125,7.625 3.10908,4.75983 3.13173,9.458 2.125,14.9375 -2.55964,7.30037 -6.04238,14.19423 -13,18 -9.37503,2.96753 -19.22686,3.92291 -28.96484,4.9353 -2.40119,0.25126 -4.80006,0.51944 -7.19922,0.78931 -26.05399,2.84402 -26.05399,2.84402 -31.21387,-0.0654 -2.37223,-2.4265 -2.15802,-4.39025 -2.24707,-7.72168 0.0922,-4.49326 0.0922,-4.49326 -2.375,-7.9375 -2.87238,-0.58443 -2.87238,-0.58443 -6,0 -3.67726,2.82866 -5.82196,6.21303 -8.375,10.0625 -3.5254,5.15015 -6.63183,7.87073 -12.7854,9.51465 -3.88977,0.57923 -7.7202,0.60533 -11.64819,0.62597 -1.26652,0.009 -1.26652,0.009 -2.55861,0.0173 -1.78099,0.009 -3.562,0.016 -5.34301,0.0198 -2.71474,0.01 -5.42874,0.0408 -8.14331,0.0723 -1.73502,0.007 -3.47004,0.0118 -5.20507,0.0156 -1.20964,0.0185 -1.20964,0.0185 -2.44371,0.0374 -4.90988,-0.0193 -8.23709,-0.6638 -12.4977,-3.36555 -5.04397,-5.58926 -5.24839,-9.81962 -5.42969,-17.05859 C 182.38352,195.71517 182.01032,193.07472 179,190 c -3.61002,0.24614 -5.44591,0.40278 -7.95703,3.10937 -2.65806,3.76093 -4.81601,7.73857 -6.95508,11.80665 -2.82579,5.15553 -5.74731,8.14775 -11.21289,10.33398 -21.84895,4.22883 -48.36324,-2.0156 -69.44922,-7.66016 -0.78335,-0.2089 -1.56669,-0.41781 -2.37378,-0.63305 C 78.46675,205.75136 77.48399,204.40983 76,202 c -1.44669,-4.34008 -1.65256,-8.46914 -1,-13 2.57667,-3.18295 4.02188,-3.88023 8.0625,-4.375 C 86,185 86,185 87.9375,186 c 3.03664,1.47231 5.74399,1.18784 9.0625,1 1.32707,-1.12242 1.32707,-1.12242 1.375,-4 -0.0142,-3.46669 -1.07654,-5.50611 -2.875,-8.4375 -2.12867,-3.60471 -3.33821,-6.2882 -3.05859,-10.50781 1.29962,-4.78043 4.27478,-9.56974 8.45703,-12.28907 3.96989,-1.44628 7.94973,-1.30261 12.10156,-0.76562 4.12314,2.06157 6.31855,3.73983 8,8 0.32308,2.81776 0.43943,5.60836 0.55859,8.44141 0.50235,2.91184 1.06256,3.85375 3.44141,5.55859 2.94278,0.47233 2.94278,0.47233 6,-1 1.76229,-2.19222 3.18995,-4.4417 4.60547,-6.87109 C 137,163 137,163 140,161 c 6.77027,-1.16097 11.20232,0.31249 16.89062,3.88281 3.09522,1.63932 5.69164,1.53569 9.10938,1.11719 0.66,-0.33 1.32,-0.66 2,-1 1.12197,-3.28535 1.12197,-3.28535 1,-7 -2.16657,-2.76704 -2.16657,-2.76704 -5.25,-5 -5.53966,-4.64173 -8.38057,-7.85362 -9.04688,-15.33203 -0.20037,-5.31563 -0.2808,-9.42702 1.98438,-14.29297 4.10085,-4.21168 8.06657,-8.02248 14.08203,-8.67578 9.21379,-0.0355 9.21379,-0.0355 13.04297,1.80078 3.65989,1.7223 6.18921,1.81986 10.1875,1.5 1.74135,-1.74135 1.50044,-4.3164 1.8125,-6.6875 1.04619,-6.48486 2.83294,-10.23825 7.8125,-14.625 4.07983,-2.89883 7.44586,-3.30256 12.375,-2.6875 5.83301,1.87298 9.51565,4.9228 13,10 0.47889,1.26323 0.93759,2.53431 1.375,3.8125 1.33826,3.5148 1.33826,3.5148 5,4.4375 3.75546,0.10434 3.75546,0.10434 6.3125,-2.5625 0.76312,-0.88688 1.52625,-1.77375 2.3125,-2.6875 3.54999,-2.48499 6.74718,-2.43249 11,-2 4.85325,1.87835 8.09987,4.64981 11,9 1.68259,5.04777 1.63437,9.35064 -0.25,14.25 -3.6095,5.67206 -7.77035,8.02142 -13.75,10.75 -0.4352,4.27763 -0.4352,4.27763 1.5,7.9375 3.69436,1.5701 6.75548,1.15862 10.5,0.0625 7.13273,-3.11222 11.60681,-8.38574 15.14062,-15.19922 1.19607,-3.89807 1.22768,-7.55729 1.23438,-11.61328 0.0245,-0.76893 0.049,-1.53785 0.0742,-2.33008 0.0361,-7.13755 -2.17825,-12.22788 -6.82422,-17.60742 -6.57614,-5.6367 -12.31504,-8.55301 -21.0625,-8.4375 -1.13695,0.006 -2.27391,0.0129 -3.44531,0.0195 -3.26989,0.0713 -3.26989,0.0713 -6.92969,1.16797 -3.1875,0 -3.1875,0 -5.10156,-1.57422 -1.36742,-1.42813 -2.71218,-2.87825 -4.03516,-4.34766 -5.1834,-5.25251 -11.95559,-7.19064 -19.17578,-7.39062 -5.99057,0.0639 -10.5889,1.57424 -15.875,4.3125 -0.63809,0.32742 -1.27617,0.65484 -1.93359,0.99219 -4.25186,2.59467 -5.75019,5.3121 -7.94141,9.75781 -1.72656,2.92578 -1.72656,2.92578 -4.125,5.25 -4.34314,0.89782 -8.35263,0.94647 -12.76563,0.92969 -8.83397,-0.0196 -15.98446,3.56635 -22.21875,9.71093 C 139.94454,121.25872 140.2924,131.739 141,145 c -3.37357,1.2959 -6.36923,2.10128 -10,2 -2.68988,-1.72768 -4.6411,-3.63112 -6.79688,-5.98438 -5.49166,-5.02428 -12.53635,-4.43824 -19.57031,-4.32812 C 99.88823,137.09564 96.79686,138.18945 93,141 c -0.6123,0.4357 -1.22461,0.87141 -1.85547,1.32031 C 84.97336,147.13619 80.93864,153.407 79,161 c 0.0206,1.13437 0.0412,2.26875 0.0625,3.4375 -1.53225,5.13755 -4.82209,6.14253 -9.32031,8.73047 C 64.94779,176.37106 62.78529,180.64412 61,186 c -0.22798,2.73289 -0.41668,5.45042 -0.5625,8.1875 -0.0432,0.74959 -0.0864,1.49918 -0.13086,2.27148 C 60.20077,198.30578 60.0999,200.15287 60,202 34.50239,193.92576 34.50239,193.92576 29.625,185.3125 c -2.87295,-6.65775 -3.50843,-12.76252 -1,-19.625 1.83671,-4.04076 3.91636,-6.83413 7.375,-9.6875 0.51305,-0.49629 1.02609,-0.99258 1.55469,-1.50391 4.42045,-2.70452 9.66237,-3.07577 14.71093,-3.95703 0.83274,-0.15726 1.66547,-0.31453 2.52344,-0.47656 0.76007,-0.13277 1.52013,-0.26555 2.30323,-0.40234 C 59.38126,149.08343 59.38126,149.08343 61,146 60.75097,142.43062 59.81853,139.50528 58.4375,136.25 55.9934,129.89777 56.06816,123.6677 58.5,117.3125 61.43752,111.3955 66.80271,106.39313 73,104 c 6.98787,-0.70335 14.10016,-1.09377 20,3 1.74656,2.46426 3.22688,4.95635 4.64062,7.625 1.28697,2.2485 2.32607,3.78326 4.35938,5.375 4.66499,0.50549 4.66499,0.50549 8.9375,-1.125 1.64766,-2.90764 1.56333,-4.557 1.0625,-7.875 -1.11451,-2.06804 -2.34806,-3.96219 -3.71094,-5.875 C 103.97925,98.02034 104.0983,90.03483 105,82 c 2.5004,-7.99759 6.82789,-14.55305 14,-19 8.70573,-4.37244 17.56185,-5.47884 26.98437,-2.83594 4.03882,1.67502 7.49462,4.28025 11.01563,6.83594 2.90439,2.37727 2.90439,2.37727 6.625,1.75 1.11375,-0.2475 2.2275,-0.495 3.375,-0.75 1.23053,-2.46107 1.09403,-4.54754 1.13672,-7.25586 0.2599,-10.84578 3.01217,-19.35547 10.92578,-27.18164 12.45472,-9.959618 28.46984,-12.230612 42.42187,-4.19141 z"
     fill="#f8cc73"
     id="path3" />
  <path
     d="m 233.33984,18.914062 c 2.93445,2.301023 5.32866,4.840031 7.84766,7.585938 2.95925,3.30904 2.95925,3.30904 6.89844,4.91406 C 250.13748,31.11404 252.01439,30.59138 254,30 c 10.57841,-1.25507 20.3999,2.71515 28.75,9.03125 7.32678,6.41093 13.2645,15.46381 14.55469,25.28906 C 297.3125,66.25 297.3125,66.25 297,69 c 0.9075,-0.33 1.815,-0.66 2.75,-1 11.14077,-3.11583 23.53687,-0.90343 33.5,4.6875 11.16549,7.3184 16.74479,16.69797 20.75,29.3125 0.75023,0.0258 1.50047,0.0516 2.27344,0.0781 11.48157,0.63626 20.38383,3.81132 28.72656,11.92188 8.96754,10.51727 10.52208,19.40653 10,33 0.99,0.33 1.98,0.66 3,1 -0.99,0.33 -1.98,0.66 -3,1 0,0.99 0,1.98 0,3 -0.63937,0.22687 -1.27875,0.45375 -1.9375,0.6875 -2.33444,1.16501 -2.33444,1.16501 -2.8125,3.9375 -0.0825,0.78375 -0.165,1.5675 -0.25,2.375 3.465,2.475 3.465,2.475 7,5 -0.33,0.66 -0.66,1.32 -1,2 -0.61488,-0.42152 -1.22977,-0.84305 -1.86328,-1.27734 -0.80824,-0.54786 -1.61649,-1.09571 -2.44922,-1.66016 -0.80051,-0.54527 -1.60102,-1.09055 -2.42578,-1.65234 -5.02212,-3.13122 -10.25779,-2.6621 -16.01172,-2.83592 C 370,158 370,158 368.0625,156.10937 367,154 367,154 367,151.5625 c 1.3708,-3.51269 3.06479,-5.20157 6,-7.5625 2.34041,-0.94004 4.51859,-1.46479 7,-2 -1.96762,-10.88314 -1.96762,-10.88314 -8.67188,-19.20703 C 365.37097,119.19067 359.85196,118.30319 353,119 c -2.35149,0.95654 -4.68746,1.95281 -7,3 -5.03728,0.58122 -5.03728,0.58122 -7.67578,-1.01172 -2.10709,-3.16374 -1.45635,-6.5261 -1.26172,-10.17578 C 337.23524,104.24625 337.0788,99.41595 333,94 c -0.68062,-1.0725 -1.36125,-2.145 -2.0625,-3.25 -4.59088,-5.07632 -11.20305,-6.50243 -17.77734,-7.09766 -8.05127,-0.18208 -13.60706,0.13295 -19.78516,5.72266 -2.4257,2.55185 -2.4257,2.55185 -4.25,5.4375 C 287,97 287,97 283.4375,97.5 280,97 280,97 278,95.9375 276.35921,92.75846 277.20401,90.41137 278,87 c 0.51562,-0.99 1.03125,-1.98 1.5625,-3 2.94908,-6.45293 2.50346,-15.08603 0.67578,-21.79688 C 279.30302,59.99991 278.2709,58.0255 277,56 c -0.86625,-1.39219 -0.86625,-1.39219 -1.75,-2.8125 -4.35562,-4.23463 -10.27507,-6.88394 -16.3125,-7.5 -3.67895,0.29198 -5.63849,0.91882 -8.9375,2.375 -3.12399,1.29969 -5.27131,1.96509 -8.6875,2.3125 -4.54323,-1.88587 -6.09009,-4.79714 -8.6875,-8.86719 C 230.72825,38.58061 228.59565,36.32242 226,34 225.2575,33.31938 224.515,32.63875 223.75,31.9375 215.21508,25.92426 207.40914,24.79773 197,26 c -9.58811,2.36821 -17.10175,6.40908 -22.78125,14.55469 -3.81973,6.6485 -4.91156,12.47484 -4.81812,20.01343 -0.004,3.38415 -0.17957,5.13303 -2.22094,7.89282 C 165,70 165,70 161.75,70.125 157.62371,68.88711 155.17053,67.1882 151.89453,64.47266 145.61594,59.59218 137.6825,59.2163 130,60 121.51453,62.03978 115.2444,65.33528 110.24219,72.52734 105.62851,80.52081 104.78995,87.8992 106,97 c 1.27412,4.37631 3.2768,7.88938 5.75,11.6875 1.63787,3.03005 1.75571,4.917 1.25,8.3125 -2.14212,3.25603 -3.50571,3.88808 -7.3125,4.75 C 100.27512,120.64918 98.04274,117.44033 95,113 c -0.51563,-1.11375 -1.03125,-2.2275 -1.5625,-3.375 -1.21171,-2.85913 -1.21171,-2.85913 -4.13281,-3.75781 -6.23817,-1.63697 -12.96946,-2.30828 -19.00782,0.30078 C 64.09114,110.16471 59.66627,114.64065 58,122 c -0.77686,6.79161 0.43239,11.54149 3.15625,17.73828 1.18358,3.17266 1.1385,5.13909 -0.15625,8.26172 -4.55723,3.45661 -9.53717,3.96444 -15.0293,4.72852 -5.64906,0.90492 -9.87267,2.70999 -13.61523,7.27929 -3.95337,7.1663 -5.54259,13.792 -3.23047,21.80469 3.86451,9.70384 13.31576,12.78248 22.32422,16.67969 C 54.29141,199.68288 57.13961,200.85382 60,202 59.913,200.44152 59.913,200.44152 59.82422,198.85156 59.48703,190.31537 59.40413,182.99806 65,176 c 3.65087,-3.47824 7.18736,-6.39579 12,-8 0.098,-0.62906 0.19594,-1.25813 0.29687,-1.90625 1.84079,-10.5369 6.04525,-19.14929 14.82813,-25.67188 7.987,-5.10933 16.84942,-5.74448 26.13672,-3.99609 3.59031,1.36415 5.88598,3.68575 8.55078,6.32422 2.43854,2.28523 3.55274,3.19642 6.91797,3.48047 2.48325,-0.26269 4.84486,-0.63921 7.26953,-1.23047 -0.33,-0.66 -0.66,-1.32 -1,-2 -1.03951,-12.50043 -0.23548,-21.8074 7.60547,-32.10938 5.28362,-5.87348 13.39724,-10.55267 21.40918,-11.00415 0.69126,0.005 1.38252,0.0105 2.09472,0.0159 0.75411,0.003 1.50821,0.006 2.28516,0.01 0.77731,0.008 1.55461,0.0168 2.35547,0.0254 0.79277,0.005 1.58555,0.009 2.40234,0.0137 1.94926,0.0117 3.89847,0.0297 5.84766,0.0488 0.40412,-1.10021 0.40412,-1.10021 0.81641,-2.22266 C 188.65755,88.76397 195.15333,83.79336 204,80 c 7.58786,-2.4016 15.45483,-1.54342 22.63672,1.65234 4.77318,2.7219 8.5062,6.49058 12.36328,10.34766 1.56555,-0.20874 3.13011,-0.4286 4.6875,-0.69141 10.51458,-1.40312 19.9575,-0.54822 28.625,5.94141 7.34497,7.51579 9.03759,14.47332 9.07031,24.77075 -0.1501,7.81413 -1.92395,13.18753 -7.25,19.02612 -3.99055,3.75764 -7.86263,6.41999 -13.13281,7.95313 -3.52023,-0.11734 -5.92394,-0.34048 -8.9375,-2.1875 -1.66479,-2.83993 -1.65384,-4.59296 -1.0625,-7.8125 2.6875,-2.1875 2.6875,-2.1875 6,-4 4.73433,-2.64242 7.25844,-4.77532 9,-10 0.36844,-5.61876 0.1919,-9.15711 -3,-14 -3.68278,-3.40658 -6.2458,-4.90071 -11.3125,-5.1875 -3.69657,0.18796 -6.33624,0.62878 -9.6875,2.1875 -1.3602,1.96758 -1.3602,1.96758 -2,4 -1,1 -1,1 -4.1875,1.25 -1.91016,-0.27734 -1.91016,-0.27734 -3.8125,-1.25 -1.81949,-2.67005 -3.18058,-5.4263 -4.59766,-8.32813 -2.13715,-4.0719 -4.77757,-5.79361 -8.71484,-7.92187 -5.27512,-1.47213 -9.09781,-1.54485 -13.9375,0.875 -6.0793,5.25031 -7.31367,10.01979 -8.25781,17.76562 C 196,117 196,117 194,119 c -4.02388,0.3945 -6.50535,0.23278 -10.1875,-1.5 -5.05061,-2.36605 -10.37033,-2.2661 -15.8125,-1.5 -4.34144,1.64651 -7.20927,4.22903 -10.5,7.4375 -2.65667,6.30958 -2.49856,13.29403 -0.94531,19.93359 1.91735,4.53773 5.01713,7.06456 8.75781,10.19141 2.65625,2.25781 2.65625,2.25781 4.6875,4.4375 0.3125,3.9375 0.3125,3.9375 -1,7 -3.82586,2.55057 -5.44263,2.51454 -10,2 -1.46663,-0.78093 -2.90334,-1.61959 -4.3125,-2.5 -4.84734,-2.90012 -9.12389,-3.71033 -14.6875,-2.5 -3.29599,2.43617 -4.8457,4.74117 -6.9375,8.25 C 131,173 131,173 128,174.125 125,174 125,174 122.6875,172.75 c -2.25785,-3.67947 -2.17257,-6.86767 -2.42188,-11.11719 C 119.93851,158.39057 119.14244,156.45984 117,154 c -4.47156,-2.74126 -8.90829,-2.51331 -14,-2 -4.19978,1.55209 -6.22342,4.05845 -8.26563,8.05078 C 93.45156,163.4557 93.21371,166.49745 94,170 c 1.17706,2.35818 2.50559,4.57166 3.87891,6.82031 1.62493,3.15928 1.61675,5.71004 1.12109,9.17969 -2,2 -2,2 -5.375,2.25 -3.43727,-0.23705 -4.7016,-0.74115 -7.625,-2.25 -3.29158,-0.34287 -5.25426,-0.42074 -8.16016,1.21875 -2.02687,1.63361 -2.02687,1.63361 -2.33593,4.05078 0.14797,7.3409 0.14797,7.3409 3.49609,13.73047 2.6455,1.37232 5.11554,2.14885 8,3 0.75613,5.23472 1.20634,9.77254 0,15 -6.3204,0.36767 -11.79387,-0.97967 -17.875,-2.625 -1.01288,-0.26998 -2.02576,-0.53996 -3.06934,-0.81812 C 53.27506,216.07942 40.92216,211.81946 29,206 c -1.62706,4.88117 -1.41143,8.74405 0.1875,13.625 5.29611,9.86173 14.9411,13.94831 25.20312,17.06641 44.58985,12.88346 91.8485,17.31306 138.10053,18.25714 2.89443,0.0594 5.7888,0.12154 8.68317,0.18377 C 215.78245,255.4444 230.39101,255.731 245,256 c 0,0.33 0,0.66 0,1 -14.85,0.33 -29.7,0.66 -45,1 0.57397,4.2018 0.57397,4.2018 4,6 -0.95906,0.40219 -0.95906,0.40219 -1.9375,0.8125 -2.39382,1.07418 -2.39382,1.07418 -3.0625,4.1875 14.85,0 29.7,0 45,0 0,0.33 0,0.66 0,1 -85.56315,0.8744 -85.56315,0.8744 -120,-4 -0.68195,-0.0943 -1.36391,-0.18861 -2.06653,-0.28577 C 102.30088,262.98824 82.912,258.84015 63.5293,254.74072 59.0257,253.79551 54.51534,252.88728 50,252 c 0.15034,0.90202 0.30067,1.80404 0.45557,2.7334 0.33318,1.99909 0.66635,3.99819 0.99943,5.9973 0.66485,3.99004 1.33036,7.97998 1.9969,11.96974 1.3346,7.99237 2.66311,15.98556 3.96607,23.98315 0.46353,2.83486 0.9286,5.66945 1.39453,8.50391 0.11638,0.70932 0.23276,1.41863 0.35266,2.14944 1.62382,9.85756 3.37792,19.68651 5.21375,29.50681 0.20585,1.10427 0.4117,2.20854 0.62379,3.34627 1.02243,5.47759 2.05463,10.95307 3.10204,16.42595 0.3794,2.01728 0.75856,4.03461 1.13745,6.052 0.17781,0.91104 0.35563,1.82209 0.53883,2.76074 C 70.82544,371.04177 71.42684,376.28812 71,382 c -0.99,0.66 -1.98,1.32 -3,2 0,0.99 0,1.98 0,3 -0.63106,2.01152 -1.29374,4.01364 -2,6 -1.65,0.33 -3.3,0.66 -5,1 0,2.97 0,5.94 0,9 -2.64666,-2.64666 -2.63482,-4.51003 -3.26172,-8.19141 -0.11107,-0.639 -0.22214,-1.27801 -0.33658,-1.93638 -0.37064,-2.14368 -0.72979,-4.28912 -1.0892,-6.43471 -0.26319,-1.53398 -0.52712,-3.06783 -0.79175,-4.60156 -0.70698,-4.11001 -1.40417,-8.22161 -2.09826,-12.3338 -1.09747,-6.49963 -2.2035,-12.99782 -3.30893,-19.4961 -0.28564,-1.68007 -0.57089,-3.36021 -0.85578,-5.0404 -2.52815,-14.90265 -5.18846,-29.77973 -7.88278,-44.65314 -2.5479,-14.07201 -5.07947,-28.14476 -7.4375,-42.25 -0.30575,-1.81987 -0.30575,-1.81987 -0.61768,-3.67651 C 32,246.38567 32,246.38567 32,243 31.42121,242.89816 30.84242,242.79633 30.24609,242.69141 24.10731,240.80173 19.12854,234.71587 16.03125,229.28516 11.80474,219.9196 9.78649,208.27545 13.4375,198.4375 13.95312,197.30313 14.46875,196.16875 15,195 c 1.23079,-3.69238 0.6026,-4.35376 -0.9375,-7.8125 -3.32546,-8.71778 -3.5126,-18.43783 -0.0352,-27.17188 C 18.61207,150.51475 25.33663,142.60736 35,138 c 2.32235,-0.70396 4.65463,-1.37701 7,-2 -0.0348,-0.9668 -0.0696,-1.93359 -0.10547,-2.92969 -0.29697,-14.28304 2.56489,-24.0078 12.23047,-34.75781 7.88948,-7.57179 17.50276,-10.49699 28.125,-10.375 1.11762,0.007 1.11762,0.007 2.25781,0.0137 C 86.33858,87.9629 88.1693,87.9809 90,88 89.89688,86.7625 89.79375,85.525 89.6875,84.25 89.7042,73.61807 95.86083,64.28742 103.03125,56.91016 112.57075,47.8913 123.35842,43.58322 136.4375,43.75 c 1.1088,0.006 1.1088,0.006 2.23999,0.0117 5.343,0.0846 10.173,0.74024 15.32251,2.23828 0.20754,-0.61746 0.41508,-1.23492 0.62891,-1.87109 4.50497,-12.38397 13.59582,-22.794283 25.30859,-29.00391 18.27757,-8.176807 36.55913,-7.310496 53.40234,3.789062 z"
     fill="#361c08"
     id="path6" />
  <path
     d="m 243,270 c -1.20539,40.66472 -2.52071,81.32585 -3.86043,121.98633 -0.1566,4.75396 -0.31258,9.50794 -0.46831,14.26193 -0.21417,6.53726 -0.42978,13.07447 -0.64629,19.61166 -0.0802,2.42648 -0.16,4.85297 -0.23938,7.27947 C 237.28485,448.4314 236.68849,463.7152 236,479 c -13.2,0 -26.4,0 -40,0 -1.12499,-13.49984 -1.12499,-13.49984 -1.26538,-18.67674 -0.0336,-1.17781 -0.0672,-2.35562 -0.10178,-3.56912 -0.0322,-1.24846 -0.0645,-2.49691 -0.0977,-3.78319 -0.0377,-1.36358 -0.0756,-2.72714 -0.1138,-4.0907 -0.0811,-2.91516 -0.16003,-5.83037 -0.23731,-8.74564 -0.12305,-4.6423 -0.25082,-9.28446 -0.37912,-13.92662 -0.20323,-7.374 -0.40325,-14.74809 -0.60194,-22.12222 -0.35374,-13.12462 -0.71318,-26.24909 -1.07344,-39.37354 -0.12562,-4.58086 -0.24993,-9.16177 -0.3731,-13.7427 -0.0964,-3.58028 -0.19378,-7.16053 -0.29161,-10.74077 -0.0187,-0.68714 -0.0375,-1.37428 -0.0568,-2.08224 -0.30482,-11.11467 -0.6695,-22.22648 -1.09473,-33.33724 C 189.89875,293.53985 189.89734,282.27534 190,271 c 6.10145,-0.14375 12.20293,-0.28612 18.30444,-0.42725 2.0726,-0.0481 4.14519,-0.0966 6.21778,-0.1455 2.99127,-0.0705 5.98257,-0.13962 8.97387,-0.2085 0.916,-0.0219 1.83199,-0.0437 2.77575,-0.0663 C 231.84959,270.0256 237.42079,269.98015 243,270 Z"
     fill="#f5e5c4"
     id="path10" />
  <path
     d="m 93,261 c 9.73925,0.67228 19.29465,2.02578 28.93359,3.53906 6.53848,1.00362 13.02091,1.77915 19.62305,2.21485 C 144,267 144,267 147,268 c 0.0396,0.82809 0.0793,1.65617 0.12012,2.50935 1.47691,30.36793 3.46516,60.70113 5.47391,91.03765 0.36256,5.47784 0.72249,10.95585 1.0817,16.43391 0.39718,6.05703 0.79573,12.11397 1.19494,18.17086 0.16606,2.52035 0.33189,5.04071 0.49743,7.5611 0.23293,3.54199 0.46713,7.0839 0.70221,10.62575 0.0748,1.12882 0.14961,2.25764 0.22669,3.42067 0.39304,5.86021 0.81014,11.71774 1.26013,17.57387 0.0922,1.20452 0.18431,2.40903 0.27927,3.65004 0.1754,2.27178 0.35409,4.54331 0.53692,6.8145 0.75397,9.74288 0.82711,19.43687 0.62668,29.2023 -7.4791,-0.16421 -14.47764,-1.43096 -21.6875,-3.3125 -0.78286,-0.20069 -1.56573,-0.40138 -2.37231,-0.60815 C 132.60323,470.4465 130.30665,469.7355 128,469 c -0.77697,-0.23557 -1.55393,-0.47114 -2.35445,-0.71385 -6.06081,-2.19215 -6.06081,-2.19215 -7.59506,-5.06259 -0.51353,-2.29385 -0.73914,-4.48721 -0.89424,-6.83294 -0.19484,-1.8132 -0.39018,-3.62634 -0.58594,-5.43945 -0.0893,-0.96591 -0.17853,-1.93182 -0.27051,-2.927 -0.41308,-4.16685 -0.99045,-8.30534 -1.56518,-12.45251 -0.46111,-3.33072 -0.90332,-6.66345 -1.34009,-9.99744 -0.59429,-4.53413 -1.19039,-9.06801 -1.78906,-13.60156 -2.31172,-17.54327 -4.51054,-35.09956 -6.67835,-52.66109 -2.61433,-21.17263 -5.25578,-42.33625 -8.27819,-63.45512 -0.99745,-6.98738 -1.9412,-13.9783 -2.78956,-20.98536 -0.0867,-0.69866 -0.17349,-1.39733 -0.26287,-2.11717 C 93.13056,268.81281 92.91503,264.96751 93,261 Z"
     fill="#f5e5c5"
     id="path11" />
  <path
     d="m 211.0625,35.6875 c 3.6281,1.9341 6.0842,3.52533 7.9375,7.3125 0.91661,6.13649 0.5299,11.77113 -2.58594,17.20703 C 213.83445,63.47787 210.60615,65.93934 207,68 c -0.66,0 -1.32,0 -2,0 -0.34031,0.95906 -0.34031,0.95906 -0.6875,1.9375 C 203,72 203,72 200.375,72.75 199.59125,72.8325 198.8075,72.915 198,73 c -0.33,0.99 -0.66,1.98 -1,3 0.66,0 1.32,0 2,0 0.79941,2.23833 1.09954,3.61427 0.5,5.9375 -1.81853,2.50048 -4.04332,3.71079 -6.61328,5.36328 -2.42085,2.18027 -3.35059,4.5248 -4.76172,7.44922 -1.72656,2.92578 -1.72656,2.92578 -4.125,5.25 -4.34314,0.89782 -8.35263,0.94647 -12.76563,0.92969 -8.83397,-0.0196 -15.98446,3.56635 -22.21875,9.71093 C 139.94454,121.25872 140.2924,131.739 141,145 c -3.37357,1.2959 -6.36923,2.10128 -10,2 -2.68988,-1.72768 -4.6411,-3.63112 -6.79688,-5.98438 -5.49166,-5.02428 -12.53635,-4.43824 -19.57031,-4.32812 C 99.88823,137.09564 96.79686,138.18945 93,141 c -0.6123,0.4357 -1.22461,0.87141 -1.85547,1.32031 C 84.97336,147.13619 80.93864,153.407 79,161 c 0.0206,1.13437 0.0412,2.26875 0.0625,3.4375 -1.53225,5.13755 -4.82209,6.14253 -9.32031,8.73047 C 64.94779,176.37106 62.78529,180.64412 61,186 c -0.22798,2.73289 -0.41668,5.45042 -0.5625,8.1875 -0.0432,0.74959 -0.0864,1.49918 -0.13086,2.27148 C 60.20077,198.30578 60.0999,200.15287 60,202 34.50239,193.92576 34.50239,193.92576 29.625,185.3125 c -2.87295,-6.65775 -3.50843,-12.76252 -1,-19.625 1.83671,-4.04076 3.91636,-6.83413 7.375,-9.6875 0.51305,-0.49629 1.02609,-0.99258 1.55469,-1.50391 4.42045,-2.70452 9.66237,-3.07577 14.71093,-3.95703 0.83274,-0.15726 1.66547,-0.31453 2.52344,-0.47656 0.76007,-0.13277 1.52013,-0.26555 2.30323,-0.40234 C 59.38126,149.08343 59.38126,149.08343 61,146 60.75097,142.43062 59.81853,139.50528 58.4375,136.25 55.9934,129.89777 56.06816,123.6677 58.5,117.3125 61.43752,111.3955 66.80271,106.39313 73,104 c 6.98787,-0.70335 14.10016,-1.09377 20,3 1.74656,2.46426 3.22688,4.95635 4.64062,7.625 1.28697,2.2485 2.32607,3.78326 4.35938,5.375 4.66499,0.50549 4.66499,0.50549 8.9375,-1.125 1.64766,-2.90764 1.56333,-4.557 1.0625,-7.875 -1.11451,-2.06804 -2.34806,-3.96219 -3.71094,-5.875 C 103.97925,98.02034 104.0983,90.03483 105,82 c 2.5004,-7.99759 6.82789,-14.55305 14,-19 8.70573,-4.37244 17.56185,-5.47884 26.98437,-2.83594 4.03882,1.67502 7.49462,4.28025 11.01563,6.83594 2.90439,2.37727 2.90439,2.37727 6.625,1.75 1.11375,-0.2475 2.2275,-0.495 3.375,-0.75 1.23991,-2.47983 1.1234,-4.62902 1.18921,-7.35913 C 168.40927,52.89117 169.28905,46.47205 174,40 c 0.66,-0.33 1.32,-0.66 2,-1 -0.30938,0.7425 -0.61875,1.485 -0.9375,2.25 -0.87199,2.25692 -1.53917,4.39502 -2.0625,6.75 3.70883,-0.54707 4.95193,-1.8134 7.1875,-4.75 8.12881,-9.55522 18.97743,-12.34505 30.875,-7.5625 z"
     fill="#f8cd74"
     id="path12" />
  <path
     d="m 338,261 c -2.6824,26.75343 -6.03263,53.43321 -9.39139,80.1084 -1.82011,14.45721 -3.59097,28.91825 -5.22775,43.39746 -0.81967,7.14283 -1.76011,14.25477 -2.79492,21.36914 -1.76255,12.12468 -3.27185,24.27819 -4.77344,36.4375 -0.27521,2.21682 -0.5506,4.43362 -0.82617,6.65039 C 314.32221,454.30835 313.66022,459.65406 313,465 c -16.10699,5.50816 -16.10699,5.50816 -23.9375,7.25 -1.01417,0.23977 -1.01417,0.23977 -2.04883,0.48437 -4.65143,1.06828 -9.27096,1.73572 -14.01367,2.26563 -0.23479,-10.09591 0.0705,-20.04722 0.91577,-30.11206 1.03607,-12.89829 1.83236,-25.80098 2.55689,-38.71997 0.129,-2.26342 0.25828,-4.52682 0.3878,-6.79021 0.33548,-5.87179 0.66816,-11.74374 0.99995,-17.61574 0.5336,-9.43819 1.07076,-18.87618 1.6095,-28.31409 0.18565,-3.26177 0.36958,-6.52365 0.5533,-9.78553 0.51009,-8.99856 1.04354,-17.98833 1.76999,-26.97257 0.31913,-4.15082 0.51922,-8.30474 0.7068,-12.46327 0.0833,-1.7487 0.16659,-3.4974 0.25,-5.24609 0.1262,-2.69217 0.25133,-5.38438 0.375,-8.07666 0.12213,-2.64256 0.24834,-5.2849 0.375,-7.92725 0.0354,-0.79804 0.0709,-1.59608 0.10742,-2.4183 0.22181,-4.57844 0.6705,-9.03096 1.39258,-13.55826 1.05405,-0.11275 1.05405,-0.11275 2.12939,-0.22778 13.38163,-1.43911 26.74242,-2.93523 40.06446,-4.85743 1.26336,-0.18018 1.26336,-0.18018 2.55224,-0.36401 1.09333,-0.15988 1.09333,-0.15988 2.20874,-0.323 C 334,261 334,261 338,261 Z"
     fill="#e1c69c"
     id="path13" />
  <path
     d="m 147,268 c 1.76616,0.10648 1.76616,0.10648 3.56799,0.21512 16.27499,0.96398 32.56606,1.10757 48.86396,1.31711 3.90944,0.051 7.81882,0.10629 11.72821,0.16113 7.61323,0.1062 15.22651,0.20793 22.83984,0.30664 0,0.33 0,0.66 0,1 -14.52,0 -29.04,0 -44,0 0.28617,7.21746 0.57234,14.43492 0.86719,21.87109 1.25363,32.64575 2.16163,65.30033 3.05839,97.95746 0.17909,6.51439 0.3614,13.02869 0.54448,19.54298 0.20128,7.16384 0.40066,14.32773 0.59909,21.49166 0.0832,3.00168 0.16692,6.00334 0.2512,9.00499 0.11671,4.16116 0.2306,8.32239 0.3442,12.48363 0.0343,1.21074 0.0685,2.42149 0.10382,3.66893 0.19724,7.32846 0.27193,14.64823 0.23163,21.97926 -9.57205,-0.39927 -19.10536,-0.89022 -28.625,-2 -1.09139,-0.12448 -1.09139,-0.12448 -2.20483,-0.25146 C 160.12879,476.12879 160.12879,476.12879 159,475 c -0.17002,-1.40254 -0.27489,-2.81303 -0.35376,-4.22363 -0.0545,-0.92815 -0.10898,-1.85629 -0.16512,-2.81256 -0.0569,-1.04509 -0.11387,-2.09018 -0.17253,-3.16694 -0.13757,-2.35287 -0.27527,-4.70573 -0.41308,-7.05859 -0.11334,-1.97919 -0.22668,-3.95837 -0.33998,-5.93756 -0.37781,-6.56448 -0.77118,-13.12804 -1.16881,-19.69135 -0.0738,-1.21978 -0.0738,-1.21978 -0.14912,-2.46421 -0.91758,-15.0834 -1.95019,-30.15812 -3.00728,-45.23231 -0.27401,-3.90744 -0.54696,-7.81495 -0.81969,-11.72248 -0.82336,-11.78549 -1.65089,-23.57062 -2.49575,-35.35459 -0.35696,-5.00462 -0.70666,-10.00974 -1.05475,-15.01499 -0.16362,-2.33003 -0.33028,-4.65985 -0.50039,-6.98942 C 147.20732,299.52883 146.78548,283.84421 147,268 Z"
     fill="#cd361e"
     id="path14" />
  <path
     d="m 285,268 c -1.21375,30.72252 -2.84188,61.40047 -4.80212,92.08398 -0.52825,8.28516 -1.04796,16.57087 -1.56903,24.85648 -0.12697,2.01722 -0.25416,4.03443 -0.38157,6.05162 -0.91632,14.50756 -1.78853,29.01691 -2.59005,43.53128 C 274.90629,448.0251 273.97221,461.51253 273,475 c -12.35642,2.17813 -24.4659,3.51364 -37,4 -0.13509,-17.30842 0.2515,-34.58314 0.80731,-51.88137 0.0924,-2.89162 0.18212,-5.78333 0.27203,-8.67504 0.68978,-22.14962 1.46229,-44.29604 2.29223,-66.44086 0.0411,-1.0966 0.0822,-2.19321 0.12452,-3.32304 0.0411,-1.09487 0.0821,-2.18975 0.12441,-3.3178 0.29956,-8.05212 0.57794,-16.10486 0.84735,-24.15804 0.11083,-3.30748 0.223,-6.61491 0.33488,-9.92236 0.12926,-3.8231 0.25741,-7.64623 0.3816,-11.46951 0.11373,-3.49864 0.23186,-6.99711 0.35083,-10.49557 0.0322,-1.03072 0.0645,-2.06144 0.0977,-3.12339 C 241.82277,280.7346 242.22657,275.40757 243,270 c 4.37393,-0.28898 8.74811,-0.57363 13.12256,-0.85449 1.4838,-0.0959 2.96752,-0.19283 4.45117,-0.29102 2.14972,-0.14206 4.29967,-0.27988 6.44971,-0.41699 1.28825,-0.0838 2.57651,-0.16758 3.90381,-0.25391 C 275.6168,267.92703 280.30502,267.96213 285,268 Z"
     fill="#cc351e"
     id="path15" />
  <path
     d="m 29,205 c 0.52094,0.24122 1.04188,0.48243 1.57861,0.73096 C 44.11476,211.93146 57.5175,216.57604 72,220 c 0.9307,0.2214 1.86141,0.44279 2.82031,0.6709 63.24343,14.83084 129.41276,15.72677 193.99219,12.0166 1.04472,-0.0588 2.08945,-0.11753 3.16583,-0.17807 C 315.27992,230.00411 359.66218,223.63567 400,207 c 0.51171,6.93656 0.20656,12.28003 -4,18 -15.70895,17.74187 -48.06851,19.59842 -70,23 -0.68409,0.10677 -1.36818,0.21354 -2.073,0.32355 -41.9662,6.50522 -84.0815,8.39073 -126.50744,7.71356 -2.21438,-0.034 -4.42868,-0.0607 -6.64319,-0.084 C 63.01035,254.38344 63.01035,254.38344 32,226 c -4.65362,-5.24157 -5.3677,-10.13633 -5,-17 1.01172,-2.21875 1.01172,-2.21875 2,-4 z"
     fill="#cd3720"
     id="path16" />
  <path
     d="m 50,252 c 9.39376,0.66829 18.43218,2.61614 27.625,4.5625 1.59235,0.33316 3.1848,0.66584 4.77734,0.99805 3.86705,0.80771 7.7327,1.6218 11.59766,2.43945 0.0454,0.93965 0.0907,1.87929 0.13745,2.84741 0.58165,10.65148 1.7621,21.1453 3.17505,31.71509 0.22571,1.71933 0.45088,3.43873 0.67554,5.1582 0.45262,3.45949 0.90787,6.91861 1.36548,10.37744 0.92045,6.96505 1.8137,13.93354 2.70898,20.90186 0.3253,2.52086 0.65082,5.04169 0.97656,7.5625 0.15888,1.22977 0.31776,2.45953 0.48145,3.72656 0.23735,1.83692 0.23735,1.83692 0.47949,3.71094 0.64605,4.99997 1.29187,9.99997 1.9375,15 0.16395,1.26892 0.32791,2.53784 0.49683,3.84521 0.91185,7.06388 1.81825,14.12842 2.71801,21.19385 0.40732,3.19534 0.81496,6.39065 1.22266,9.58594 0.1523,1.19479 0.1523,1.19479 0.30768,2.41373 1.2898,10.10754 2.6118,20.21029 3.96966,30.30893 0.13844,1.03082 0.27687,2.06165 0.4195,3.12371 0.67911,5.0532 1.36152,10.10593 2.04877,15.15802 0.24763,1.83577 0.49519,3.67154 0.74267,5.50733 0.11537,0.83983 0.23073,1.67966 0.3496,2.54494 C 118.68044,458.16559 119,461.47785 119,465 106.73326,463.28892 93.03352,455.14224 85.17187,445.83594 81.95984,441.1738 80.56578,436.68788 79.58594,431.14062 79.46307,430.45321 79.3402,429.7658 79.21361,429.05756 78.79814,426.70679 78.39719,424.35392 78,422 c -0.14378,-0.85046 -0.28756,-1.70092 -0.4357,-2.57715 -0.99905,-5.93916 -1.9765,-11.8818 -2.95166,-17.82492 C 69.65593,371.43338 64.33936,341.33539 58.99123,311.23837 57.11038,300.6461 55.26,290.04874 53.4249,279.44846 52.15942,272.14922 52.15942,272.14922 50.86433,264.85521 50.11862,260.4869 49.88516,256.4099 50,252 Z"
     fill="#cd371f"
     id="path17" />
  <path
     d="m 381,251 c -3.40042,24.51367 -7.42065,48.8641 -11.83267,73.21332 -2.18121,12.05597 -4.23558,24.12584 -6.16733,36.22418 -1.9832,12.39919 -4.02697,24.78597 -6.17529,37.15775 -0.29317,1.6899 -0.58491,3.38006 -0.875,5.07049 -1.49488,8.69823 -3.08868,17.37385 -4.91065,26.01004 -0.14418,0.71899 -0.28836,1.43798 -0.43692,2.17876 -2.52308,11.57464 -8.41087,19.35496 -18.22714,25.83296 -6.1187,3.91171 -12.32934,6.46721 -19.375,8.3125 -0.14875,-6.67208 0.22659,-13.05811 1.17187,-19.66016 0.12234,-0.89507 0.24467,-1.79015 0.3707,-2.71235 0.26148,-1.90924 0.52586,-3.81809 0.79294,-5.72655 0.70666,-5.05233 1.39132,-10.10766 2.07855,-15.16266 0.13764,-1.00831 0.27528,-2.01662 0.41709,-3.05548 1.18007,-8.67658 2.26205,-17.36251 3.29385,-26.0578 1.18262,-9.92295 2.39922,-19.84012 3.6875,-29.75 1.77702,-13.68353 3.53841,-27.36901 5.28598,-41.05634 0.30345,-2.37463 0.60748,-4.74918 0.91217,-7.12365 0.4368,-3.40465 0.87175,-6.80953 1.30576,-10.21454 0.14129,-1.10521 0.28259,-2.21042 0.42817,-3.34912 0.73535,-5.8093 1.4294,-11.62057 2.06743,-17.44141 0.13108,-1.18656 0.26215,-2.37311 0.3972,-3.59563 0.24755,-2.26388 0.48898,-4.52844 0.7233,-6.79373 0.11114,-1.0166 0.22227,-2.0332 0.33678,-3.08061 0.13999,-1.33505 0.13999,-1.33505 0.28282,-2.69707 0.48999,-2.76004 1.17654,-5.0221 2.44789,-7.5229 2.88672,-0.93359 2.88672,-0.93359 6.6875,-1.4375 8.40237,-1.26129 16.48761,-3.35143 24.68042,-5.58179 0.94722,-0.25531 1.89444,-0.51063 2.87036,-0.77368 0.84603,-0.23227 1.69206,-0.46454 2.56372,-0.70386 C 378,251 378,251 381,251 Z"
     fill="#b42917"
     id="path18" />
  <path
     d="m 89.9375,104.875 c 3.8603,2.67858 5.52671,5.64172 7.70312,9.75 1.28356,2.24254 2.35575,3.76082 4.35938,5.375 3.10839,0.72692 3.10839,0.72692 6,1 0,0.99 0,1.98 0,3 -0.66,0 -1.32,0 -2,0 0,0.66 0,1.32 0,2 0.7425,-0.20625 1.485,-0.4125 2.25,-0.625 3.07331,-0.41909 4.17787,0.006 6.75,1.625 0,0.99 0,1.98 0,3 1.32,0 2.64,0 4,0 0.99,0.99 0.99,0.99 2,2 2.66949,0.24316 2.66949,0.24316 5.625,0.125 1.00289,-0.018 2.00578,-0.0361 3.03906,-0.0547 0.77086,-0.0232 1.54172,-0.0464 2.33594,-0.0703 0,1.65 0,3.3 0,5 0.66,0 1.32,0 2,0 0.22687,0.80437 0.45375,1.60875 0.6875,2.4375 0.43313,0.84562 0.86625,1.69125 1.3125,2.5625 2.54775,0.89386 2.54775,0.89386 5,1 0,0.66 0,1.32 0,2 -3.37357,1.2959 -6.36923,2.10128 -10,2 -2.68988,-1.72768 -4.6411,-3.63112 -6.79688,-5.98438 -5.49166,-5.02428 -12.53635,-4.43824 -19.57031,-4.32812 C 99.88823,137.09564 96.79686,138.18945 93,141 c -0.6123,0.4357 -1.22461,0.87141 -1.85547,1.32031 C 84.97336,147.13619 80.93864,153.407 79,161 c 0.0206,1.13437 0.0412,2.26875 0.0625,3.4375 -1.53225,5.13755 -4.82209,6.14253 -9.32031,8.73047 C 64.94779,176.37106 62.78529,180.64412 61,186 c -0.22798,2.73289 -0.41668,5.45042 -0.5625,8.1875 -0.0648,1.12438 -0.0648,1.12438 -0.13086,2.27148 C 60.20077,198.30578 60.0999,200.15287 60,202 34.50239,193.92576 34.50239,193.92576 29.625,185.3125 c -2.87295,-6.65775 -3.50843,-12.76252 -1,-19.625 1.83671,-4.04076 3.91636,-6.83413 7.375,-9.6875 0.51305,-0.49629 1.02609,-0.99258 1.55469,-1.50391 4.42045,-2.70452 9.66237,-3.07577 14.71093,-3.95703 1.24911,-0.2359 1.24911,-0.2359 2.52344,-0.47656 1.1401,-0.19916 1.1401,-0.19916 2.30323,-0.40234 C 59.38126,149.08343 59.38126,149.08343 61,146 c -0.24903,-3.56938 -1.18147,-6.49472 -2.5625,-9.75 -2.4441,-6.35223 -2.36934,-12.5823 0.0625,-18.9375 6.01658,-12.11911 18.72486,-16.45652 31.4375,-12.4375 z"
     fill="#f8c86c"
     id="path19" />
  <path
     d="m 284,284 c 0.33,1.32 0.66,2.64 1,4 0.66,-0.33 1.32,-0.66 2,-1 5.40167,-0.81025 10.79162,-1.17432 16.25,-1.375 1.16016,-0.049 2.32031,-0.098 3.51562,-0.14844 4.27861,0.69243 5.52406,2.19818 8.23438,5.52344 2.40744,11.36471 -1.24347,24.79113 -3.14331,36.02295 -0.54044,3.20479 -1.05832,6.41264 -1.57349,9.62158 C 308.20691,349.32017 305.52488,361.65021 302,374 c -0.27046,0.98009 -0.54092,1.96018 -0.81958,2.96997 C 296.28654,394.53264 288.69878,412.82916 277,427 c -0.33,0 -0.66,0 -1,0 -0.20843,-12.6767 0.4498,-25.22181 1.27734,-37.86719 0.13266,-2.08957 0.26477,-4.17918 0.39638,-6.26883 0.34559,-5.47115 0.69659,-10.94193 1.04936,-16.41263 0.62859,-9.75161 1.25024,-19.50365 1.86676,-29.25604 0.0657,-1.03468 0.1315,-2.06936 0.19923,-3.1354 0.82223,-12.9844 1.57066,-25.95916 1.92356,-38.96613 0.0259,-0.90509 0.0519,-1.81019 0.0786,-2.74271 0.0172,-0.75564 0.0343,-1.51128 0.052,-2.28982 C 283.00425,287.94407 283.425,286.0405 284,284 Z"
     fill="#f6e6c5"
     id="path20" />
  <path
     d="m 370,121 c 4.33345,2.75765 7.19339,6.18537 9,11 0.58336,3.33004 0.86414,6.6239 1,10 -1.04801,0.4892 -1.04801,0.4892 -2.11719,0.98828 -0.91008,0.43699 -1.82015,0.87399 -2.75781,1.32422 -0.90492,0.42926 -1.80984,0.85852 -2.74219,1.30078 -2.6473,1.30666 -2.6473,1.30666 -4.38281,4.38672 0.18233,3.82749 0.18233,3.82749 2,7 2.18591,0.13347 4.37403,0.23127 6.5625,0.3125 6.07467,0.40087 10.43605,1.2133 15.4375,4.6875 0.84498,0.57621 0.84498,0.57621 1.70703,1.16406 3.70457,2.79421 5.80679,5.45995 7.29297,9.83594 0.70123,5.97022 0.53154,10.93813 -3,16 -7.22918,7.4099 -17.30948,10.22661 -26.9375,13.3125 -0.82911,0.26676 -1.65822,0.53351 -2.51245,0.80835 -0.78867,0.245 -1.57733,0.49 -2.38989,0.74243 -0.70504,0.21954 -1.41008,0.43909 -2.13648,0.66528 C 362,205 362,205 358,205 c 0.46643,-3.73148 1.03789,-7.25617 2.0625,-10.875 1.94314,-7.64006 1.54681,-15.04096 -2.0625,-22.125 -4.98735,-7.53727 -11.51933,-12.00548 -20,-15 -3.96224,-0.67583 -7.26017,-0.22195 -11.125,0.9375 C 324,158 324,158 322.4375,156.61328 c -1.0491,-1.25105 -2.0662,-2.52959 -3.05078,-3.83203 C 317.82613,150.77667 316.02977,149.50353 314,148 c -0.33,-0.99 -0.66,-1.98 -1,-3 0.75023,-0.12117 1.50047,-0.24234 2.27344,-0.36719 2.13763,-0.34999 4.27298,-0.71412 6.40625,-1.08984 2.0577,-0.3365 4.12663,-0.61617 6.20312,-0.80469 2.62787,-0.30201 4.7083,-0.63877 7.11719,-1.73828 3.08296,-3.96261 3.93899,-8.60734 4.875,-13.4375 0.37125,-1.17563 0.7425,-2.35125 1.125,-3.5625 3.125,-1.5 3.125,-1.5 6,-2 0,-0.66 0,-1.32 0,-2 7.94433,-3.25921 15.38932,-2.8721 23,1 z"
     fill="#f6b751"
     id="path21" />
  <path
     d="m 400,207 c 0.51171,6.93656 0.20656,12.28003 -4,18 -22.90799,25.87255 -84.68393,26.687 -117.51709,28.74927 C 270.60183,254.12923 262.83808,254.05481 255,253 c 1.98,-0.495 1.98,-0.495 4,-1 -0.20625,-0.76313 -0.4125,-1.52625 -0.625,-2.3125 C 258,247 258,247 260,244 c -0.99,0 -1.98,0 -3,0 0,-0.66 0,-1.32 0,-2 1.32,0 2.64,0 4,0 0.54373,-3.05848 1,-5.88773 1,-9 0.80816,-0.0449 1.61632,-0.0897 2.44897,-0.13599 44.31715,-2.51584 91.50534,-6.7346 132.5315,-24.9812 C 399,207 399,207 400,207 Z"
     fill="#cd3720"
     id="path22" />
  <path
     d="m 338,261 c -1.14175,11.38746 -2.41155,22.75951 -3.73792,34.12677 -0.1726,1.48066 -0.34442,2.96141 -0.51538,4.44226 C 332.68582,308.74426 331.482,317.88138 330,327 c -0.33,0 -0.66,0 -1,0 0,-3.3 0,-6.6 0,-10 -1.32,0 -2.64,0 -4,0 -0.495,0.99 -0.495,0.99 -1,2 -1.32,-0.33 -2.64,-0.66 -4,-1 0,-3.69418 1.28179,-5.77836 3,-9 -0.33,-0.33 -0.66,-0.66 -1,-1 -1.67423,0.29299 -3.34178,0.6269 -5,1 -0.33,0 -0.66,0 -1,0 -0.14695,-1.87945 -0.14695,-1.87945 -0.29688,-3.79688 -0.1501,-1.65112 -0.30119,-3.30216 -0.45312,-4.95312 -0.0928,-1.2375 -0.0928,-1.2375 -0.1875,-2.5 -0.35764,-3.69564 -0.67892,-6.1616 -2.73047,-9.30859 -3.13038,-1.93486 -5.23174,-1.87259 -8.89453,-1.75391 -1.84658,0.0522 -1.84658,0.0522 -3.73047,0.10547 -4.91856,0.27469 -9.8125,0.64766 -14.70703,1.20703 -0.87043,-3.00507 -1.13484,-5.68749 -1.125,-8.8125 -0.003,-0.81082 -0.005,-1.62164 -0.008,-2.45703 0.15977,-3.28469 0.62942,-6.48241 1.13281,-9.73047 1.05405,-0.11275 1.05405,-0.11275 2.12939,-0.22778 13.38163,-1.43911 26.74242,-2.93523 40.06446,-4.85743 1.26336,-0.18018 1.26336,-0.18018 2.55224,-0.36401 1.09333,-0.15988 1.09333,-0.15988 2.20874,-0.323 C 334,261 334,261 338,261 Z m -23,48 c 1.32,0.33 2.64,0.66 4,1 -0.33,1.32 -0.66,2.64 -1,4 -0.99,-0.33 -1.98,-0.66 -3,-1 0,-1.32 0,-2.64 0,-4 z"
     fill="#e5cea5"
     id="path23" />
  <path
     d="m 216,94 c 4.38197,1.57222 7.82168,3.58697 11,7 -1.68252,3.72686 -4.00677,6.93967 -6.375,10.25 -2.592,3.64125 -4.96283,7.1686 -6.6875,11.3125 -2.51291,4.45838 -5.07041,6.0532 -9.9375,7.4375 -4.18278,0.52285 -7.93853,0.0154 -12,-1 -6.95578,-0.70737 -11.35902,0.86328 -17,5 -4.7348,4.59984 -6.11566,8.11384 -6.5625,14.625 -0.0838,1.18852 -0.16758,2.37703 -0.25391,3.60156 -0.0606,0.91524 -0.12117,1.83047 -0.18359,2.77344 -3.57701,-1.23282 -5.77213,-2.39204 -8.1875,-5.3125 -0.48855,-0.57363 -0.97711,-1.14727 -1.48047,-1.73828 C 153.9556,141.545 154.28723,134.48847 155,127 c 2.64249,-5.67647 7.20904,-9.61187 13,-12 5.34076,-0.58003 10.88048,-0.86513 15.8125,1.5 3.65989,1.7223 6.18921,1.81986 10.1875,1.5 1.74135,-1.74135 1.50044,-4.3164 1.8125,-6.6875 1.04619,-6.48486 2.83294,-10.23825 7.8125,-14.625 C 207.69528,93.79546 211.07937,93.3623 216,94 Z"
     fill="#f8e6bd"
     id="path24" />
  <path
     d="m 337,170 c 4.96639,2.4832 8.75214,5.89727 11,11 1.59628,7.60932 -0.53285,13.68544 -4.25,20.32812 -4.79196,7.31631 -9.42917,9.11361 -17.84644,10.95142 -6.58629,1.2156 -13.20936,1.96347 -19.8684,2.65576 -2.40119,0.25126 -4.80006,0.51944 -7.19922,0.78931 -25.76337,2.8123 -25.76337,2.8123 -31.24756,0.0691 C 266,214 266,214 265.75,211.3125 c 0.0825,-0.76313 0.165,-1.52625 0.25,-2.3125 0.65702,-0.0454 1.31404,-0.0907 1.99097,-0.13745 7.07661,-0.55683 13.88835,-1.67141 20.82153,-3.17505 0.99709,-0.20045 1.99418,-0.4009 3.02148,-0.60742 C 297.4687,203.86916 301.40624,202.46936 306,199 c 0.66,0 1.32,0 2,0 0,-0.66 0,-1.32 0,-2 0.66,0 1.32,0 2,0 0.66,-1.32 1.32,-2.64 2,-4 0.66,0 1.32,0 2,0 0.22043,-0.64969 0.44086,-1.29938 0.66797,-1.96875 0.43957,-0.67031 0.87914,-1.34063 1.33203,-2.03125 2.42578,-0.46875 2.42578,-0.46875 5.3125,-0.5 4.78004,-0.24465 7.29868,-0.87747 10.6875,-4.5 0.0451,-2.37897 0.0451,-2.37897 -1,-5 -2.23085,-1.6785 -4.47406,-2.75999 -7,-4 4.39892,-4.54555 6.52949,-5.53921 13,-5 z"
     fill="#f5b24c"
     id="path25" />
  <path
     d="m 144,61 c 2.83306,3.08303 4.88394,5.94161 6,10 -0.40399,5.25183 -2.56721,9.64262 -6.375,13.25 C 141,86 141,86 138.6875,86.8125 c -5.49465,2.42787 -9.65236,6.38436 -12.625,11.5625 -1.23527,4.21444 -1.77507,8.25415 -2.0625,12.625 -5.46859,0.33481 -9.26872,-0.14338 -14,-3 -5.34677,-7.75362 -6.23851,-16.83775 -5,-26 2.48226,-7.99637 6.83623,-14.55821 14,-19 7.61758,-3.82592 17.18501,-6.74186 25,-2 z"
     fill="#f9e6bd"
     id="path26" />
  <path
     d="m 211.0625,35.6875 c 3.6281,1.9341 6.0842,3.52533 7.9375,7.3125 0.91684,6.13798 0.54078,11.79342 -2.60547,17.21875 -4.63204,5.91655 -11.74247,10.12798 -19.14844,11.16797 C 187.85817,71.92625 182.3311,68.62604 175.3125,62.75 173.22041,58.36656 173.68483,54.6066 175,50 181.8883,36.57847 196.83084,29.84826 211.0625,35.6875 Z"
     fill="#fae8c1"
     id="path27" />
  <path
     d="m 274,420 c 0.33,0 0.66,0 1,0 0.30407,18.45701 -0.49929,36.61225 -2,55 -12.34818,2.17667 -24.46731,3.56577 -37,4 -0.10396,-12.37632 -0.19684,-24.66827 1,-37 0.33,0 0.66,0 1,0 0.33,4.29 0.66,8.58 1,13 11.6106,-5.9622 26.46695,-13.94283 34,-25 0.93346,-3.39571 1.18314,-6.49109 1,-10 z"
     fill="#b12716"
     id="path30" />
  <path
     d="m 400,207 c 0.51171,6.93656 0.20656,12.28003 -4,18 -13.53411,15.28559 -38.91561,17.72839 -58,21 0.33,-6.6 0.66,-13.2 1,-20 -0.99,-0.33 -1.98,-0.66 -3,-1 0.84087,-0.17221 0.84087,-0.17221 1.69873,-0.3479 C 356.09087,220.8515 382.24539,207 400,207 Z"
     fill="#b52a18"
     id="path32" />
  <path
     d="m 279,62 c 0.66,0 1.32,0 2,0 2.33899,7.01698 2.20517,16.42019 -1,23.125 -0.36352,0.68449 -0.72703,1.36898 -1.10156,2.07422 C 277.71245,89.57635 277.52626,91.39442 278,94 c 2.56546,2.56546 4.47687,2.54046 8,3 -0.99,0.66 -1.98,1.32 -3,2 0.45375,0.53625 0.9075,1.0725 1.375,1.625 3.91042,5.71523 3.96244,11.50897 3.9375,18.1875 0.0161,0.85143 0.0322,1.70285 0.0488,2.58008 0.006,7.66577 -1.65043,14.55312 -5.86133,21.04492 -0.60328,0.95713 -0.60328,0.95713 -1.21875,1.93359 -1.83095,2.32777 -3.51301,3.53579 -6.47266,3.89453 -0.78246,-0.005 -1.56492,-0.0103 -2.37109,-0.0156 -1.17756,0.008 -1.17756,0.008 -2.37891,0.0156 C 268,148 268,148 266,146 c 0.86625,-0.495 1.7325,-0.99 2.625,-1.5 5.4202,-3.60918 9.48505,-9.29264 11.375,-15.5 0.32912,-2.94188 0.37011,-5.85427 0.375,-8.8125 0.0367,-1.15339 0.0367,-1.15339 0.0742,-2.33008 0.0361,-7.13755 -2.17825,-12.22788 -6.82422,-17.60742 -4.63277,-3.97094 -8.80717,-6.44001 -14.625,-8.25 -0.99,-0.66 -1.98,-1.32 -3,-2 -2.28649,-0.24107 -2.28649,-0.24107 -4.6875,-0.125 -0.80824,0.018 -1.61648,0.0361 -2.44922,0.0547 -0.61488,0.0232 -1.22976,0.0464 -1.86328,0.0703 2.69451,-5.76026 6.58078,-7.88327 12.3125,-10.3125 8.19073,-3.61097 13.47107,-8.83818 18.46094,-16.18359 C 278.1782,63.00762 278.58297,62.51133 279,62 Z"
     fill="#f5b54f"
     id="path36" />
  <path
     d="m 243,270 c 0,2.64 0,5.28 0,8 -0.66,0 -1.32,0 -2,0 0,3.63 0,7.26 0,11 -16.81666,0.22918 -33.29229,0.0451 -50,-2 0,2.64 0,5.28 0,8 -0.33,0 -0.66,0 -1,0 0,-7.92 0,-15.84 0,-24 6.10146,-0.14338 12.20293,-0.28612 18.30444,-0.42725 2.0726,-0.0481 4.14519,-0.0966 6.21778,-0.1455 2.99127,-0.0705 5.98257,-0.13962 8.97387,-0.2085 0.916,-0.0219 1.83199,-0.0437 2.77575,-0.0663 C 231.84959,270.0256 237.42079,269.98015 243,270 Z"
     fill="#e5cea7"
     id="path37" />
  <path
     d="m 174,184 c 2.375,2 2.375,2 4,4 -0.48469,0.2591 -0.96938,0.5182 -1.46875,0.78516 -6.03715,3.79643 -8.65215,8.43673 -11.56445,14.74438 -2.76625,5.7983 -6.06372,9.27507 -12.1543,11.78296 -15.13673,2.72957 -32.44246,-0.25666 -47.5,-2.6875 -0.68788,-0.10159 -1.37575,-0.20319 -2.08447,-0.30786 C 98.9677,211.56427 96.73061,210.35969 94,207 c 4.32539,-2.1627 7.60013,-2.08944 12.375,-1.6875 1.26586,0.0993 2.53172,0.19852 3.83594,0.30078 2.50194,0.25535 4.99925,0.5618 7.48828,0.92188 7.77013,1.09425 16.56218,1.33414 23.67578,-2.22266 3.06154,-2.69707 3.38212,-4.50618 4.625,-8.3125 3.76521,-3.85485 7.11604,-5.6182 12.17969,-7.3125 2.26805,-0.8566 3.92424,-2.19773 5.82031,-3.6875 3.31382,-1.21507 6.49991,-1.36459 10,-1 z"
     fill="#f4b651"
     id="path38" />
  <path
     d="m 258,186 c 3.90939,3.4935 5.762,6.93546 7,12 0,0.99 0,1.98 0,3 -0.99,-0.495 -0.99,-0.495 -2,-1 -2.87306,-0.50095 -2.87306,-0.50095 -6,0 -4.3949,3.38069 -7.04198,7.93164 -9.96094,12.59766 -3.08333,3.63266 -6.53855,6.05827 -11.28717,6.71168 -2.55366,0.0563 -5.07168,-0.0146 -7.62298,-0.13747 -1.3835,-0.0418 -1.3835,-0.0418 -2.79494,-0.0844 -2.92488,-0.0928 -5.84771,-0.21468 -8.77147,-0.33746 -1.99147,-0.0683 -3.98301,-0.13476 -5.97461,-0.19922 C 205.72422,218.38922 200.86217,218.20163 196,218 c 7.27729,-7.36737 14.56008,-8.67486 24.61133,-9.36743 2.1345,-0.15286 4.26297,-0.38584 6.38867,-0.63257 0.33,-0.66 0.66,-1.32 1,-2 1.01062,-0.66 2.02125,-1.32 3.0625,-2 0.96938,-0.66 1.93875,-1.32 2.9375,-2 0,-0.66 0,-1.32 0,-2 0.99,0 1.98,0 3,0 -0.495,-3.465 -0.495,-3.465 -1,-7 0.99,-0.33 1.98,-0.66 3,-1 0.33,-0.99 0.66,-1.98 1,-3 5.22238,-2.83268 12.15887,-4.39507 18,-3 z"
     fill="#f5b44f"
     id="path39" />
  <path
     d="m 285,268 c -0.55711,11.67556 -1.16969,23.34037 -2,35 -0.33,0 -0.66,0 -1,0 -0.33,-4.62 -0.66,-9.24 -1,-14 -12.54,0 -25.08,0 -38,0 0,-6.27 0,-12.54 0,-19 4.37403,-0.28783 8.74809,-0.57362 13.12256,-0.85449 1.4838,-0.0959 2.96752,-0.19283 4.45117,-0.29102 C 268.72445,268.31587 276.82612,267.87102 285,268 Z"
     fill="#b12615"
     id="path41" />
  <path
     d="M 325.74609,85.71094 C 329.11353,87.63686 330.87618,89.77766 333,93 c -1.52688,4.46638 -5.09866,6.55769 -8.8125,9.125 -0.61682,0.44215 -1.23363,0.8843 -1.86914,1.33984 -6.3692,4.48078 -11.4979,6.16697 -19.36914,6.05078 C 298.07798,108.66397 295.76385,105.91816 293,102 c -1.05288,-1.63378 -2.0727,-3.29182 -3,-5 -0.66,-0.66 -1.32,-1.32 -2,-2 8.81213,-13.47737 23.21289,-15.31027 37.74609,-9.28906 z"
     fill="#f8e2b4"
     id="path42" />
  <path
     d="m 147,268 c 1.56089,0.0985 1.56089,0.0985 3.15332,0.19897 16.41462,0.9606 32.84155,1.12193 49.27863,1.33326 3.90944,0.051 7.81882,0.10629 11.72821,0.16113 7.61323,0.1062 15.22651,0.20793 22.83984,0.30664 0,0.33 0,0.66 0,1 -14.52,0 -29.04,0 -44,0 0.2475,4.57875 0.2475,4.57875 0.5,9.25 0.92372,19.56139 0.58492,39.17298 0.5,58.75 -0.33,0 -0.66,0 -1,0 -0.99,-25.74 -0.99,-25.74 -2,-52 -9.75117,-0.90307 -9.75117,-0.90307 -19.50342,-1.79443 C 161.22328,284.5169 154.13815,283.60643 147,282 c 0,-4.62 0,-9.24 0,-14 z"
     fill="#b22a18"
     id="path43" />
  <path
     d="m 49.1875,151.9375 c 1.63002,0.0135 1.63002,0.0135 3.29297,0.0273 0.83144,0.0116 1.66289,0.0232 2.51953,0.0352 0,0.66 0,1.32 0,2 0.66,0 1.32,0 2,0 1.58256,3.46186 2.75908,6.20461 2,10 -2.55806,2.49411 -5.18886,4.4337 -8.10938,6.47266 C 45.47616,174.15793 45.47616,174.15793 43,180 c -0.24974,5.1613 0.15223,9.91338 1,15 -4.96835,-0.45167 -8.45735,-2.61723 -12,-6 -3.90599,-5.27837 -5.41256,-11.48746 -5,-18 2.00029,-8.08353 6.07863,-13.38575 13,-18 3.28519,-1.09506 5.73663,-1.09961 9.1875,-1.0625 z"
     fill="#f8e5bc"
     id="path44" />
  <path
     d="m 221,154 c 2.6875,2.1875 2.6875,2.1875 4,5 0.1875,2.5625 0.1875,2.5625 -1,5 -1.71376,1.15956 -3.42421,2.05648 -5.30859,2.91016 -2.20486,1.42068 -2.7864,2.64542 -3.69141,5.08984 -0.78591,5.61362 -0.24234,10.24456 3,15 1.91457,1.8415 3.8726,3.39263 6,5 -0.31391,2.90366 -0.67366,4.60839 -2.5625,6.875 -3.68388,1.70025 -6.71204,1.44106 -10.4375,0.125 -5.66137,-3.55887 -10.35447,-8.4179 -12,-15 -0.85672,-8.13882 -1.34837,-16.35231 4,-23 5.04418,-6.04372 10.01852,-9.01297 18,-7 z"
     fill="#361d08"
     id="path45" />
  <path
     d="m 235,457 c 0.33,7.26 0.66,14.52 1,22 -13.2,0 -26.4,0 -40,0 0,-12 0,-12 1,-13 1.66016,-0.30823 3.32904,-0.56957 5,-0.8125 5.32204,-0.85408 10.56266,-1.91416 15.8125,-3.125 1.05671,-0.2365 1.05671,-0.2365 2.13477,-0.47778 C 224.74329,460.45747 230.27017,457 235,457 Z"
     fill="#dec296"
     id="path48" />
  <path
     d="m 103.64844,261.96094 c 0.76777,0.11002 1.53553,0.22004 2.32657,0.3334 2.46756,0.3543 4.93381,0.71687 7.39999,1.08066 3.21551,0.47063 6.4316,0.93693 9.64844,1.39844 1.16629,0.16795 1.16629,0.16795 2.35614,0.33929 5.44161,0.76635 10.87092,1.31668 16.35724,1.66315 C 144,267 144,267 147,268 c 0,4.29 0,8.58 0,13 -7.69236,-0.41806 -14.69018,-1.23327 -22.11719,-3.25 -2.70675,-0.7042 -5.37563,-1.2266 -8.13281,-1.6875 C 109.4023,274.80012 102.2132,272.86439 95,271 c -0.33,-2.97 -0.66,-5.94 -1,-9 3.14451,-1.57225 6.2808,-0.54635 9.64844,-0.0391 z"
     fill="#e4cba3"
     id="path49" />
  <path
     d="m 113,151 c 4.11846,2.05923 6.34774,3.73045 8,8 0.28693,2.24133 0.48967,4.49443 0.625,6.75 0.0748,1.17047 0.14953,2.34094 0.22656,3.54687 0.049,0.89204 0.098,1.78407 0.14844,2.70313 -0.66,-0.33 -1.32,-0.66 -2,-1 0,-2.97 0,-5.94 0,-9 -5.41029,1.69071 -11.39989,5.16321 -14.23828,10.19531 -0.25137,0.59555 -0.50274,1.1911 -0.76172,1.80469 -0.66,0 -1.32,0 -2,0 -0.66,3.63 -1.32,7.26 -2,11 -0.66,-1.32 -1.32,-2.64 -2,-4 -0.49758,-0.83016 -0.99516,-1.66031 -1.50781,-2.51563 C 91.70377,168.69719 91.70377,168.69719 93,162 c 4.6786,-9.29723 9.59225,-12.34611 20,-11 z"
     fill="#f9e5b9"
     id="path50" />
  <path
     d="m 220.21484,166.37109 c 1.22848,0.0219 2.45696,0.0438 3.72266,0.0664 1.2259,-0.001 2.4518,-0.003 3.71484,-0.004 3.87012,0.65481 5.05466,1.43356 7.34766,4.56641 0.71875,1.95312 0.71875,1.95312 1,4 0.11344,0.75797 0.22687,1.51594 0.34375,2.29687 0.32858,5.15869 -0.0938,8.09639 -3.53125,12.07813 -2.75818,2.76939 -5.64811,5.32363 -8.8125,7.625 -0.20625,-0.88687 -0.4125,-1.77375 -0.625,-2.6875 -1.68951,-4.07019 -3.99324,-5.56482 -7.375,-8.3125 -2.54225,-4.16005 -2.7575,-9.24323 -2,-14 1.51082,-3.82052 2.10456,-4.82483 6.21484,-5.62891 z"
     fill="#f8e4b8"
     id="path51" />
  <path
     d="M 256.87109,105.71875 C 261.81969,108.358 265.18981,111.56942 267,117 c 0.44159,6.7342 -0.42092,10.77614 -4.75,16.1875 -2.91709,2.34988 -5.75716,3.4691 -9.25,4.8125 -0.33,-0.33 -0.66,-0.66 -1,-1 0.25385,-3.53114 0.55274,-7.04828 0.94727,-10.56641 0.3326,-3.97066 0.39812,-5.8533 -1.69336,-9.36718 -2.03139,-1.8624 -3.44725,-2.94474 -6.00391,-3.87891 -1.0725,-0.39188 -2.145,-0.78375 -3.25,-1.1875 0.33,-0.66 0.66,-1.32 1,-2 0.66,0 1.32,0 2,0 0,-1.32 0,-2.64 0,-4 4.05469,-1.35156 7.77729,-1.85382 11.87109,-0.28125 z"
     fill="#f5b954"
     id="path52" />
  <path
     d="m 194,441 c 0.33,0 0.66,0 1,0 0.33,12.54 0.66,25.08 1,38 -12.09884,-0.53773 -23.99593,-1.41688 -36,-3 -0.0977,-6.15234 -0.0977,-6.15234 0,-8 1,-1 1,-1 4.14282,-1.11353 1.39121,1.6e-4 2.78242,0.006 4.17359,0.0159 0.73105,10e-4 1.46211,0.003 2.21531,0.004 2.34364,0.006 4.68718,0.0182 7.03078,0.0309 1.58529,0.005 3.17057,0.01 4.75586,0.0137 3.89395,0.0102 7.78769,0.0298 11.68164,0.0488 0,-8.58 0,-17.16 0,-26 z"
     fill="#af2111"
     id="path53" />
  <path
     d="m 115,130 c 1.32,0 2.64,0 4,0 0.66,0.66 1.32,1.32 2,2 2.66949,0.24316 2.66949,0.24316 5.625,0.125 1.00289,-0.018 2.00578,-0.0361 3.03906,-0.0547 1.15629,-0.0348 1.15629,-0.0348 2.33594,-0.0703 0,1.65 0,3.3 0,5 0.66,0 1.32,0 2,0 0.34031,1.20656 0.34031,1.20656 0.6875,2.4375 0.43313,0.84562 0.86625,1.69125 1.3125,2.5625 2.54775,0.89386 2.54775,0.89386 5,1 0,0.66 0,1.32 0,2 -3.37357,1.2959 -6.36923,2.10128 -10,2 -2.68988,-1.72768 -4.6411,-3.63112 -6.79688,-5.98438 -5.49166,-5.02428 -12.53635,-4.43824 -19.57031,-4.32812 C 95.35172,137.48587 89.29365,143.63075 83,150 c -1.5625,-1.125 -1.5625,-1.125 -3,-3 0.13553,-3.25274 0.44068,-5.27046 2.4375,-7.875 C 84,138 84,138 86,138 c 0.33,-0.66 0.66,-1.32 1,-2 1.32,0 2.64,0 4,0 0.33,-0.99 0.66,-1.98 1,-3 2.33116,-1.6077 3.42816,-2.09531 6.25,-1.625 0.5775,0.20625 1.155,0.4125 1.75,0.625 0,0.66 0,1.32 0,2 0.99,-0.51563 1.98,-1.03125 3,-1.5625 4.31493,-1.88833 7.44342,-1.31684 12,-0.4375 0,-0.66 0,-1.32 0,-2 z"
     fill="#f5bd57"
     id="path54" />
  <path
     d="m 54,252 c 10.7076,2.14152 21.4152,4.28304 32.1228,6.42456 0.6401,0.12802 1.2802,0.25604 1.9397,0.38794 1.97917,0.39583 3.95833,0.79167 5.9375,1.1875 -0.33,3.3 -0.66,6.6 -1,10 -7.28962,-2.04521 -14.09644,-4.29901 -20.79688,-7.84375 C 69.21256,260.58673 66.10616,259.32299 63,258 c -1.46449,-0.6743 -2.9228,-1.36215 -4.375,-2.0625 -0.66773,-0.32098 -1.33547,-0.64195 -2.02344,-0.97266 C 55,254 55,254 54,252 Z"
     fill="#af2716"
     id="path55" />
  <path
     d="m 179.375,468.875 c 1.24523,0.0181 2.49047,0.0361 3.77344,0.0547 1.41152,0.0348 1.41152,0.0348 2.85156,0.0703 -0.66,2.64 -1.32,5.28 -2,8 2.31,0 4.62,0 7,0 0,0.33 0,0.66 0,1 -10.21659,0.28734 -19.90994,-0.53236 -30,-2 0,-1.65 0,-3.3 0,-5 0.66,0 1.32,0 2,0 0,0.66 0,1.32 0,2 0.66,0 1.32,0 2,0 0.33,-0.66 0.66,-1.32 1,-2 4.55,-1.95391 8.45942,-2.21775 13.375,-2.125 z"
     fill="#b32816"
     id="path56" />
  <path
     d="m 179,235 c 22.77,0 45.54,0 69,0 0,0.33 0,0.66 0,1 -11.88,0 -23.76,0 -36,0 0,0.66 0,1.32 0,2 0.66,0 1.32,0 2,0 0.495,2.475 0.495,2.475 1,5 0.66,0 1.32,0 2,0 0,1.65 0,3.3 0,5 -0.99,0 -1.98,0 -3,0 -0.495,-1.485 -0.495,-1.485 -1,-3 -0.66,0.66 -1.32,1.32 -2,2 -0.99,-0.33 -1.98,-0.66 -3,-1 0.33,-0.99 0.66,-1.98 1,-3 -0.66,-0.66 -1.32,-1.32 -2,-2 0,-0.99 0,-1.98 0,-3 -2.68213,-1.34106 -4.88398,-1.2145 -7.88281,-1.31641 -1.1666,-0.0419 -2.33321,-0.0838 -3.53516,-0.12695 -1.22332,-0.0393 -2.44664,-0.0786 -3.70703,-0.11914 -1.23105,-0.0432 -2.46211,-0.0864 -3.73047,-0.13086 C 185.09647,236.20031 182.04833,236.09828 179,236 c 0,-0.33 0,-0.66 0,-1 z"
     fill="#df3b24"
     id="path57" />
  <path
     d="m 233,463 c 2,3 2,3 3,16 -12.87,0 -25.74,0 -39,0 0,-0.33 0,-0.66 0,-1 14.85,-0.495 14.85,-0.495 30,-1 -0.33,-2.31 -0.66,-4.62 -1,-7 1.65,0 3.3,0 5,0 -0.99,-0.66 -1.98,-1.32 -3,-2 0.99,-0.33 1.98,-0.66 3,-1 0,-0.99 0,-1.98 0,-3 0.66,-0.33 1.32,-0.66 2,-1 z"
     fill="#e9d2a7"
     id="path58" />
  <path
     d="m 240,389 c 0.43313,0.63937 0.86625,1.27875 1.3125,1.9375 1.59989,2.32996 1.59989,2.32996 4.6875,3.0625 -1.33488,3.59391 -2.96023,6.75491 -5,10 0.99,0.33 1.98,0.66 3,1 -0.45375,0.7425 -0.9075,1.485 -1.375,2.25 -1.31141,2.21931 -2.50781,4.42968 -3.625,6.75 -1.25249,-2.50497 -1.11374,-4.20853 -1.09766,-7.00781 0.003,-0.98614 0.006,-1.97227 0.01,-2.98828 0.008,-1.03254 0.0168,-2.06508 0.0254,-3.12891 0.005,-1.04027 0.009,-2.08055 0.0137,-3.15234 0.0118,-2.57428 0.0283,-5.14844 0.0488,-7.72266 0.66,-0.33 1.32,-0.66 2,-1 z m 4,0 c 0.66,0.66 1.32,1.32 2,2 -0.99,0.66 -1.98,1.32 -3,2 0.33,-1.32 0.66,-2.64 1,-4 z"
     fill="#d04227"
     id="path59" />
  <path
     d="m 287,111 c 0.33,0 0.66,0 1,0 0.0539,2.93774 0.0936,5.8745 0.125,8.8125 0.0168,0.83338 0.0335,1.66676 0.0508,2.52539 0.006,0.80244 0.0129,1.60488 0.0195,2.43164 0.0105,0.73839 0.021,1.47678 0.0317,2.23755 C 288,129 288,129 286,132 c 0,-1.32 0,-2.64 0,-4 -1.32,0.33 -2.64,0.66 -4,1 -1.00497,-3.01491 -1.10335,-5.04182 -1.0625,-8.1875 0.009,-0.90105 0.0181,-1.80211 0.0273,-2.73047 0.0116,-0.68707 0.0232,-1.37414 0.0352,-2.08203 0.99,0 1.98,0 3,0 0,0.99 0,1.98 0,3 0.99,0 1.98,0 3,0 0,-2.64 0,-5.28 0,-8 z"
     fill="#e8a444"
     id="path60" />
  <path
     d="m 100,227 c 7.5867,0.45046 15.13965,1.05207 22.6875,1.9375 0.68256,0.0746 1.36512,0.14921 2.06836,0.22607 3.45653,0.42469 5.28609,0.8644 8.24414,2.83643 -6.6,-0.33 -13.2,-0.66 -20,-1 0,0.66 0,1.32 0,2 -1.65,0 -3.3,0 -5,0 0,-0.99 0,-1.98 0,-3 -2.64,-0.33 -5.28,-0.66 -8,-1 0,-0.66 0,-1.32 0,-2 z"
     fill="#da3b24"
     id="path62" />
  <path
     d="m 52,186 c 0.66,0.33 1.32,0.66 2,1 -0.66,1.65 -1.32,3.3 -2,5 0.66,0.33 1.32,0.66 2,1 -1,3 -1,3 -3.25,4.3125 -3.33378,0.83345 -4.74759,0.2316 -7.75,-1.3125 0.66,-1.32 1.32,-2.64 2,-4 1.32,0 2.64,0 4,0 0.30937,-0.80438 0.61875,-1.60875 0.9375,-2.4375 C 51,187 51,187 52,186 Z"
     fill="#f5b955"
     id="path63" />
  <path
     d="m 193,372 c 0.33,0 0.66,0 1,0 2.57997,5.87094 2.22552,11.5961 2.125,17.875 -0.009,1.06992 -0.0181,2.13984 -0.0273,3.24219 -0.0235,2.62783 -0.0563,5.2552 -0.0977,7.88281 -0.33,0 -0.66,0 -1,0 -0.33,-1.65 -0.66,-3.3 -1,-5 -0.33,0 -0.66,0 -1,0 0,-7.92 0,-15.84 0,-24 z"
     fill="#f6dbb8"
     id="path64" />
  <path
     d="m 112,420 c 2.28063,3.42094 2.21925,4.68187 2.125,8.6875 -0.0181,0.99387 -0.0361,1.98773 -0.0547,3.01172 -0.0348,1.13889 -0.0348,1.13889 -0.0703,2.30078 -0.99,-0.66 -1.98,-1.32 -3,-2 0,-0.66 0,-1.32 0,-2 -0.99,-0.33 -1.98,-0.66 -3,-1 -0.99,0.495 -0.99,0.495 -2,1 -0.33,-0.99 -0.66,-1.98 -1,-3 0.66,-0.66 1.32,-1.32 2,-2 0.33,-0.99 0.66,-1.98 1,-3 0.99,0.33 1.98,0.66 3,1 0.33,-0.99 0.66,-1.98 1,-3 z"
     fill="#c92c18"
     id="path65" />
  <path
     d="m 103,151 c 0.66,1.32 1.32,2.64 2,4 -3.12622,3.39418 -5.56541,5.60627 -10,7 -0.33,-0.66 -0.66,-1.32 -1,-2 5.00228,-7.66743 5.00228,-7.66743 9,-9 z"
     fill="#f5cf79"
     id="path66" />
  <path
     d="m 79,152 c 0.33,0.66 0.66,1.32 1,2 -0.30938,0.86625 -0.61875,1.7325 -0.9375,2.625 -1.27505,4.05016 -1.2082,7.14976 -1.0625,11.375 -1.96466,1.06775 -3.96855,2.06553 -6,3 -0.66,-0.33 -1.32,-0.66 -2,-1 0.495,-1.485 0.495,-1.485 1,-3 0.66,0.33 1.32,0.66 2,1 1.22857,-2.6875 2,-4.64594 2,-7.625 C 75,158 75,158 77,155 c -0.66,-0.33 -1.32,-0.66 -2,-1 1.32,-0.66 2.64,-1.32 4,-2 z"
     fill="#f3b853"
     id="path68" />
  <path
     d="m 29,205 c 8.91,3.96 8.91,3.96 18,8 -3.54973,1.18324 -5.3996,0.9001 -9,0 -1.5,-1.375 -1.5,-1.375 -3,-3 -1.97621,-1.04623 -3.97371,-2.0544 -6,-3 0,3.63 0,7.26 0,11 -2,-2 -2,-2 -2.25,-5.375 C 27,209 27,209 29,205 Z"
     fill="#db3b24"
     id="path69" />
  <path
     d="m 184,249 c 0.66,0 1.32,0 2,0 0.33,0.66 0.66,1.32 1,2 1.65,-0.33 3.3,-0.66 5,-1 0,0.66 0,1.32 0,2 -0.99,0.33 -1.98,0.66 -3,1 3.3,0.33 6.6,0.66 10,1 0,0.33 0,0.66 0,1 -7.59,0 -15.18,0 -23,0 0,-0.33 0,-0.66 0,-1 0.78375,-0.14438 1.5675,-0.28875 2.375,-0.4375 2.58921,-0.44049 2.58921,-0.44049 4.625,-1.5625 0.33,-0.99 0.66,-1.98 1,-3 z"
     fill="#de3b23"
     id="path71" />
  <path
     d="m 285,268 c 0,1.98 0,3.96 0,6 -0.33,0 -0.66,0 -1,0 0,-1.65 0,-3.3 0,-5 -1.65,0.66 -3.3,1.32 -5,2 0,1.65 0,3.3 0,5 -0.99,-0.33 -1.98,-0.66 -3,-1 -0.2475,-0.66 -0.495,-1.32 -0.75,-2 -0.4125,-0.66 -0.825,-1.32 -1.25,-2 -3.56207,-0.8187 -3.56207,-0.8187 -7,-1 0,-0.33 0,-0.66 0,-1 6.04829,-0.89604 11.88946,-1.11269 18,-1 z"
     fill="#c0301d"
     id="path74" />
  <path
     d="m 66,168 c 1.32,1.32 2.64,2.64 4,4 -0.39832,0.45891 -0.79664,0.91781 -1.20703,1.39062 C 66.08858,176.52272 63.42008,179.63877 61,183 c -0.33,-0.99 -0.66,-1.98 -1,-3 0.99,-1.45406 0.99,-1.45406 2,-2.9375 2.28145,-2.78948 2.28145,-2.78948 1.75,-5.4375 -0.2475,-0.53625 -0.495,-1.0725 -0.75,-1.625 0.99,0 1.98,0 3,0 0,-0.66 0,-1.32 0,-2 z"
     fill="#f4bc54"
     id="path75" />
  <path
     d="m 189,87 c 0.94279,2.53738 1.08146,3.74637 0.24219,6.35937 C 187.68568,96.08103 186.42014,97.98181 184,100 c -4.428,0.78172 -8.55099,0.53467 -13,0 0,-0.33 0,-0.66 0,-1 3.63,0 7.26,0 11,0 0.22687,-0.86625 0.45375,-1.7325 0.6875,-2.625 C 184.24025,92.38221 186.1432,90.15752 189,87 Z"
     fill="#ecb552"
     id="path76" />
  <path
     d="m 255,105 c 0.33,0.66 0.66,1.32 1,2 -2.64,0.33 -5.28,0.66 -8,1 0,1.65 0,3.3 0,5 -2.97,-0.495 -2.97,-0.495 -6,-1 0.33,-0.66 0.66,-1.32 1,-2 0.66,0 1.32,0 2,0 0,-1.32 0,-2.64 0,-4 3.47325,-1.15775 6.36067,-1.06867 10,-1 z"
     fill="#e9b351"
     id="path78" />
  <path
     d="m 318,408 c 0.33,0 0.66,0 1,0 0.25516,7.5272 -0.71702,14.58852 -2,22 -0.33,0 -0.66,0 -1,0 0.0116,-0.89203 0.0232,-1.78406 0.0352,-2.70313 0.009,-1.17046 0.018,-2.34093 0.0273,-3.54687 0.0116,-1.16016 0.0232,-2.32031 0.0352,-3.51563 C 316.0178,417.59023 315.78644,415.50174 315,413 c 0.99,-0.33 1.98,-0.66 3,-1 0,-1.32 0,-2.64 0,-4 z"
     fill="#e5d4a8"
     id="path79" />
  <path
     d="m 152,396 c 1.485,0.99 1.485,0.99 3,2 0.24878,2.24658 0.24878,2.24658 0.0742,5.00781 -0.0548,0.98614 -0.10957,1.97227 -0.16602,2.98828 -0.0728,1.03254 -0.14566,2.06508 -0.2207,3.12891 -0.0612,1.04027 -0.12246,2.08055 -0.18555,3.15234 -0.15357,2.57539 -0.32146,5.14904 -0.50195,7.72266 -0.33,0 -0.66,0 -1,0 -1.03388,-8.01253 -1.10467,-15.92905 -1,-24 z"
     fill="#f4dcb9"
     id="path80" />
  <path
     d="m 53,216 c 5.91293,0.64271 11.34245,2.19004 17,4 -10.46334,2.76833 -10.46334,2.76833 -14,1 -0.33,-0.99 -0.66,-1.98 -1,-3 -0.66,-0.66 -1.32,-1.32 -2,-2 z"
     fill="#dc3c24"
     id="path83" />
  <path
     d="m 369,394 c 0.99,0 1.98,0 3,0 -0.66,4.62 -1.32,9.24 -2,14 -0.33,-0.66 -0.66,-1.32 -1,-2 -0.66,0 -1.32,0 -2,0 0.66,-3.96 1.32,-7.92 2,-12 z"
     fill="#392213"
     id="path85" />
  <path
     d="m 152,346 c 0.33,0 0.66,0 1,0 0,3.3 0,6.6 0,10 0.66,0 1.32,0 2,0 1.12378,3.30435 0.89555,5.05069 -0.4375,8.25 -0.28746,0.70641 -0.57492,1.41281 -0.87109,2.14062 -0.22817,0.5311 -0.45633,1.06219 -0.69141,1.60938 -0.33,0 -0.66,0 -1,0 0,-7.26 0,-14.52 0,-22 z"
     fill="#cf2b15"
     id="path86" />
  <path
     d="m 356,389 c 0.33,0 0.66,0 1,0 -0.48828,7.47835 -1.33406,14.68925 -3,22 -0.33,0 -0.66,0 -1,0 -0.0271,-1.4374 -0.0465,-2.87494 -0.0625,-4.3125 -0.0116,-0.80051 -0.0232,-1.60102 -0.0352,-2.42578 C 353,402 353,402 354,399 c -0.66,-0.33 -1.32,-0.66 -2,-1 0.66,-0.33 1.32,-0.66 2,-1 0.68473,-1.88765 0.68473,-1.88765 1.125,-4.0625 0.16758,-0.73348 0.33516,-1.46695 0.50781,-2.22266 C 355.75398,390.14895 355.87516,389.58305 356,389 Z"
     fill="#cb2e1c"
     id="path88" />
  <path
     d="m 280,300 c 0.33,0.99 0.66,1.98 1,3 0.66,0 1.32,0 2,0 0,3.63 0,7.26 0,11 -1.32,0.33 -2.64,0.66 -4,1 0.33,-4.95 0.66,-9.9 1,-15 z"
     fill="#d14327"
     id="path89" />
  <path
     d="m 320,406 c 0.33,0 0.66,0 1,0 0.99942,5.95599 0.97708,10.17859 -1,16 -0.36271,1.99488 -0.70641,3.99378 -1,6 -0.33,0 -0.66,0 -1,0 -0.26443,-7.59499 0.39118,-14.57359 2,-22 z"
     fill="#ad1a0d"
     id="path91" />
  <path
     d="m 185,287 c 1.32,0 2.64,0 4,0 0,4.95 0,9.9 0,15 -3,0 -3,0 -4.6875,-1.375 C 183,299 183,299 183,297 c 1.32,0.33 2.64,0.66 4,1 0.33,-3.3 0.66,-6.6 1,-10 -0.99,-0.33 -1.98,-0.66 -3,-1 z"
     fill="#d23f24"
     id="path92" />
  <path
     d="m 168,142 c 0.33,0 0.66,0 1,0 0,3.96 0,7.92 0,12 0.99,-0.33 1.98,-0.66 3,-1 0.33,1.32 0.66,2.64 1,4 -0.66,0 -1.32,0 -2,0 0,1.98 0,3.96 0,6 -0.33,0 -0.66,0 -1,0 -0.30938,-0.94875 -0.61875,-1.8975 -0.9375,-2.875 -0.93645,-2.9858 -0.93645,-2.9858 -2.0625,-5.125 0.0881,-2.21139 0.24298,-4.42042 0.4375,-6.625 0.10184,-1.18852 0.20367,-2.37703 0.30859,-3.60156 C 167.82988,143.8582 167.91367,142.94297 168,142 Z"
     fill="#f8d888"
     id="path93" />
  <path
     d="m 72,378 c 1.76463,3.0881 2,4.23312 2,8 0.99,0.33 1.98,0.66 3,1 -0.66,2.64 -1.32,5.28 -2,8 -2.15059,-3.53187 -2.37977,-6.66288 -2.625,-10.75 -0.0748,-1.17047 -0.14953,-2.34094 -0.22656,-3.54688 C 72.09944,379.81109 72.05044,378.91906 72,378 Z"
     fill="#dc3b22"
     id="path94" />
  <path
     d="m 59,190 c 0.33,0 0.66,0 1,0 0,3.96 0,7.92 0,12 -3.04951,-1.52476 -5.364,-2.92885 -8,-5 1.98,-0.66 3.96,-1.32 6,-2 0.33,-1.65 0.66,-3.3 1,-5 z"
     fill="#e8a946"
     id="path95" />
  <path
     d="m 121,139 c 3.38051,1.06245 4.95627,1.95167 7.375,4.625 2.50974,2.75454 2.50974,2.75454 6.4375,2.6875 1.05187,-0.10313 2.10375,-0.20625 3.1875,-0.3125 -2.20622,2.04279 -3.38377,2.9842 -6.4375,3.0625 -3.63095,-1.50552 -5.21219,-3.96999 -7.5625,-7.0625 -0.98291,-1.0168 -1.97335,-2.02738 -3,-3 z"
     fill="#2a1506"
     id="path97" />
  <path
     d="m 147,282 c 2.31,0.33 4.62,0.66 7,1 -0.33,0.99 -0.66,1.98 -1,3 -2.0625,0.6875 -2.0625,0.6875 -4,1 -0.33,1.98 -0.66,3.96 -1,6 -0.33,0 -0.66,0 -1,0 0,-3.63 0,-7.26 0,-11 z"
     fill="#d54a2d"
     id="path98" />
  <path
     d="m 273,457 c 3.74194,4.98925 3.74194,4.98925 4,8 -0.58856,2.35425 -1.24593,4.69343 -2,7 0.99,0.33 1.98,0.66 3,1 -1.32,0 -2.64,0 -4,0 -0.33,-5.28 -0.66,-10.56 -1,-16 z"
     fill="#dbba8f"
     id="path101" />
  <path
     d="m 365,335 c 0.33,0 0.66,0 1,0 -0.11402,2.27141 -0.24159,4.54215 -0.375,6.8125 -0.0696,1.26457 -0.13922,2.52914 -0.21094,3.83203 C 365,349 365,349 363,352 c 0,-1.32 0,-2.64 0,-4 -0.66,-0.33 -1.32,-0.66 -2,-1 0.33,-0.66 0.66,-1.32 1,-2 0.66,0 1.32,0 2,0 -0.33,-1.98 -0.66,-3.96 -1,-6 0.66,0 1.32,0 2,0 0,-1.32 0,-2.64 0,-4 z"
     fill="#c82f1c"
     id="path102" />
  <path
     d="m 109.3125,131.3125 c 0.55687,0.22687 1.11375,0.45375 1.6875,0.6875 -0.33,0.66 -0.66,1.32 -1,2 1.32,0.66 2.64,1.32 4,2 -3.63,0 -7.26,0 -11,0 -0.33,-0.66 -0.66,-1.32 -1,-2 4.43077,-3.07692 4.43077,-3.07692 7.3125,-2.6875 z"
     fill="#dca047"
     id="path107" />
  <path
     d="m 159,453 c 0.99,1.485 0.99,1.485 2,3 0.99,0.33 1.98,0.66 3,1 -0.33,1.32 -0.66,2.64 -1,4 -0.99,0 -1.98,0 -3,0 0,1.65 0,3.3 0,5 -0.33,0 -0.66,0 -1,0 0,-4.29 0,-8.58 0,-13 z"
     fill="#c92110"
     id="path108" />
  <path
     d="m 234,270 c 2.97,0 5.94,0 9,0 0,2.64 0,5.28 0,8 -0.66,0 -1.32,0 -2,0 0,-1.98 0,-3.96 0,-6 -2.31,-0.33 -4.62,-0.66 -7,-1 0,-0.33 0,-0.66 0,-1 z"
     fill="#e9cfa7"
     id="path109" />
  <path
     d="m 49,190 c 1.0445,3.1335 0.93424,3.98968 0,7 -2.97,-0.495 -2.97,-0.495 -6,-1 0.66,-1.32 1.32,-2.64 2,-4 1.32,0 2.64,0 4,0 0,-0.66 0,-1.32 0,-2 z"
     fill="#f1bf60"
     id="path110" />
  <path
     d="m 227,167 c 2.71676,0.36713 4.61064,0.72745 6.875,2.3125 C 235,171 235,171 234.6875,173.1875 234.46063,173.78562 234.23375,174.38375 234,175 c -5.875,-4.625 -5.875,-4.625 -7,-8 z"
     fill="#f9dba0"
     id="path111" />
  <path
     d="m 128,132 c 1.32,0 2.64,0 4,0 0,1.65 0,3.3 0,5 0.66,0 1.32,0 2,0 -0.33,1.32 -0.66,2.64 -1,4 -0.99,-0.33 -1.98,-0.66 -3,-1 0,-1.32 0,-2.64 0,-4 -0.66,-0.33 -1.32,-0.66 -2,-1 0,-0.99 0,-1.98 0,-3 z"
     fill="#f7c364"
     id="path112" />
  <path
     d="m 243,86 c 1.0445,3.1335 0.93424,3.98968 0,7 -1.65,-0.33 -3.3,-0.66 -5,-1 -0.33,-0.99 -0.66,-1.98 -1,-3 1.65,0 3.3,0 5,0 0.33,-0.99 0.66,-1.98 1,-3 z"
     fill="#f4d380"
     id="path113" />
  <path
     d="m 106,359 c 1.86351,2.79527 2.34309,3.84046 2.75,7 0.098,0.68063 0.19594,1.36125 0.29687,2.0625 C 109,370 109,370 107,373 c -1.20568,-4.67201 -1.09382,-9.21496 -1,-14 z"
     fill="#f7edd5"
     id="path114" />
  <path
     d="m 381,251 c -0.33,2.31 -0.66,4.62 -1,7 -0.33,-0.66 -0.66,-1.32 -1,-2 -0.99,0.33 -1.98,0.66 -3,1 0,-0.99 0,-1.98 0,-3 -0.66,-0.33 -1.32,-0.66 -2,-1 2.64739,-1.46063 3.89448,-2 7,-2 z"
     fill="#be2c1b"
     id="path115" />
  <path
     d="m 194,106 c 0.33,0 0.66,0 1,0 0.33,3.63 0.66,7.26 1,11 -3,2 -3,2 -5.6875,1.625 -0.76313,-0.20625 -1.52625,-0.4125 -2.3125,-0.625 0.33,-0.66 0.66,-1.32 1,-2 1.32,-0.33 2.64,-0.66 4,-1 0.33,-2.97 0.66,-5.94 1,-9 z"
     fill="#40240d"
     id="path116" />
  <path
     d="m 86,136 c 0.33,0 0.66,0 1,0 0.33,1.98 0.66,3.96 1,6 -2.31,0.33 -4.62,0.66 -7,1 0.33,-1.32 0.66,-2.64 1,-4 1.32,-0.33 2.64,-0.66 4,-1 0,-0.66 0,-1.32 0,-2 z"
     fill="#f8bf5f"
     id="path119" />
  <path
     d="m 367,119.75 c 3,1.25 3,1.25 5,4.25 -0.59812,-0.18563 -1.19625,-0.37125 -1.8125,-0.5625 -2.35159,-0.65844 -2.35159,-0.65844 -5.1875,0.5625 -2,-2 -2,-2 -3,-4 2,-1 2,-1 5,-0.25 z"
     fill="#f3cc74"
     id="path120" />
  <path
     d="m 287,111 c 0.33,0 0.66,0 1,0 0,3.63 0,7.26 0,11 -1.65,0 -3.3,0 -5,0 0,-1.98 0,-3.96 0,-6 0.33,0.99 0.66,1.98 1,3 0.99,0 1.98,0 3,0 0,-2.64 0,-5.28 0,-8 z"
     fill="#f3aa45"
     id="path121" />
  <path
     d="m 106,79 c 0.99,0 1.98,0 3,0 -0.66,3.96 -1.32,7.92 -2,12 -0.33,0 -0.66,0 -1,0 -0.19574,-1.4364 -0.38128,-2.8742 -0.5625,-4.3125 -0.10441,-0.80051 -0.20883,-1.60102 -0.31641,-2.42578 C 105,82 105,82 106,79 Z"
     fill="#f0deb7"
     id="path122" />
  <path
     d="m 220,78 c 4.12751,0.60699 7.33211,2.03811 11,4 -0.66,0.66 -1.32,1.32 -2,2 -4.95,-1.98 -4.95,-1.98 -10,-4 0.33,-0.66 0.66,-1.32 1,-2 z"
     fill="#eebd57"
     id="path123" />
  <path
     d="m 157,471 c 0.33,0.99 0.66,1.98 1,3 -3.98196,1.05405 -6.98195,0.84099 -11,0 3.26546,-1.88392 6.28112,-2.49288 10,-3 z"
     fill="#e5d4b5"
     id="path124" />
  <path
     d="m 315,431 c 0.33,0 0.66,0 1,0 0.18451,9.41002 0.18451,9.41002 -1,14 -0.33,0 -0.66,0 -1,0 0,-2.31 0,-4.62 0,-7 -0.66,0 -1.32,0 -2,0 0.30938,-0.59812 0.61875,-1.19625 0.9375,-1.8125 1.1646,-2.27707 1.1646,-2.27707 2.0625,-5.1875 z"
     fill="#e8dbaf"
     id="path125" />
  <path
     d="m 326,228 c -0.33,0.99 -0.66,1.98 -1,3 -1.65,0.33 -3.3,0.66 -5,1 0,-0.66 0,-1.32 0,-2 -1.98,0 -3.96,0 -6,0 3.90028,-2.60019 7.47435,-2.15086 12,-2 z"
     fill="#de3e25"
     id="path126" />
  <path
     d="m 308,68 c 0,0.66 0,1.32 0,2 -1.45463,0.3891 -2.91391,0.76088 -4.375,1.125 -1.21816,0.31324 -1.21816,0.31324 -2.46094,0.63281 C 300.44992,71.83771 299.73578,71.91766 299,72 c -0.66,-0.66 -1.32,-1.32 -2,-2 3.63423,-2.32591 6.77088,-2.16266 11,-2 z"
     fill="#261307"
     id="path127" />
  <path
     d="m 68,107 c 0.33,0.66 0.66,1.32 1,2 -2.66667,2.66667 -5.33333,5.33333 -8,8 -0.33,-0.66 -0.66,-1.32 -1,-2 0.95422,-1.14926 1.91352,-2.29431 2.875,-3.4375 0.53367,-0.63809 1.06734,-1.27617 1.61719,-1.93359 C 66,108 66,108 68,107 Z"
     fill="#fae384"
     id="path130" />
  <path
     d="m 143,45 c 3.3,0.33 6.6,0.66 10,1 0.33,0.99 0.66,1.98 1,3 -2.31,-0.33 -4.62,-0.66 -7,-1 0,-0.66 0,-1.32 0,-2 -1.32,-0.33 -2.64,-0.66 -4,-1 z"
     fill="#271409"
     id="path131" />
  <path
     d="m 253,447 c 0.33,0.99 0.66,1.98 1,3 -0.66,0 -1.32,0 -2,0 0,0.66 0,1.32 0,2 -2.66667,0.66667 -5.33333,1.33333 -8,2 2.7552,-2.95929 5.46627,-5.03682 9,-7 z"
     fill="#a52213"
     id="path136" />
  <path
     d="m 114,413 c 0.66,1.32 1.32,2.64 2,4 0.66,0.66 1.32,1.32 2,2 -0.66,0 -1.32,0 -2,0 0,1.98 0,3.96 0,6 -0.99,-0.66 -1.98,-1.32 -3,-2 0.33,-3.3 0.66,-6.6 1,-10 z"
     fill="#f4dcb9"
     id="path137" />
  <path
     d="m 149,351 c 0.99,0.33 1.98,0.66 3,1 0.19531,6.05469 0.19531,6.05469 0,8 -0.66,0.66 -1.32,1.32 -2,2 -1.17571,-3.67411 -1.07367,-7.16929 -1,-11 z"
     fill="#f4dcbc"
     id="path138" />
  <path
     d="m 102,341 c 0.33,0 0.66,0 1,0 1.10229,4.40915 1.07655,8.48382 1,13 -1.5625,-1.4375 -1.5625,-1.4375 -3,-4 0.0315,-3.05381 0.46733,-5.99653 1,-9 z"
     fill="#c91f0d"
     id="path139" />
  <path
     d="m 121,162 c 0.33,0 0.66,0 1,0 0.0825,0.72187 0.165,1.44375 0.25,2.1875 0.8975,3.36563 2.46143,5.22863 4.75,7.8125 -1.32,0.33 -2.64,0.66 -4,1 -2.67927,-4.01891 -2.15601,-6.24162 -2,-11 z"
     fill="#492b11"
     id="path140" />
  <path
     d="m 367,406 c 0.66,0 1.32,0 2,0 0.16702,4.34264 0.13,7.20961 -2,11 -0.19491,-1.45736 -0.38069,-2.91595 -0.5625,-4.375 -0.10441,-0.81211 -0.20883,-1.62422 -0.31641,-2.46094 C 366,408 366,408 367,406 Z"
     fill="#251106"
     id="path141" />
  <path
     d="m 266,209 c 2.475,0.99 2.475,0.99 5,2 -0.66,1.32 -1.32,2.64 -2,4 0.66,0.33 1.32,0.66 2,1 -3.875,-0.875 -3.875,-0.875 -5,-2 -0.0406,-1.66617 -0.0427,-3.33388 0,-5 z"
     fill="#f7be51"
     id="path142" />
  <path
     d="m 399,187 c 0,3.90839 -1.50568,5.11594 -4,8 -1.32,-0.33 -2.64,-0.66 -4,-1 2.64,-2.31 5.28,-4.62 8,-7 z"
     fill="#220f04"
     id="path143" />
  <path
     d="m 60,148 c 0.33,0.99 0.66,1.98 1,3 -0.99,0.66 -1.98,1.32 -3,2 -0.66,-0.33 -1.32,-0.66 -2,-1 -0.33,0.66 -0.66,1.32 -1,2 0,-0.66 0,-1.32 0,-2 -1.32,-0.33 -2.64,-0.66 -4,-1 2.97,-0.99 5.94,-1.98 9,-3 z"
     fill="#eccd7f"
     id="path144" />
  <path
     d="m 258,196 c 2.3125,-0.25 2.3125,-0.25 5,0 1.8125,2 1.8125,2 3,4 -3.129,0 -4.37419,-0.42451 -7,-2 -0.33,-0.66 -0.66,-1.32 -1,-2 z"
     fill="#e6ad4d"
     id="path151" />
  <path
     d="m 93,140 c 0.66,0.33 1.32,0.66 2,1 -0.99,1.485 -0.99,1.485 -2,3 -0.66,0 -1.32,0 -2,0 0,0.66 0,1.32 0,2 -1.32,0.33 -2.64,0.66 -4,1 1.39333,-3.3672 2.97893,-4.98595 6,-7 z"
     fill="#281306"
     id="path152" />
  <path
     d="m 164,489 c 2.31,0.33 4.62,0.66 7,1 0.33,0.99 0.66,1.98 1,3 -3.71599,0.20086 -4.77208,0.15194 -8,-2 0,-0.66 0,-1.32 0,-2 z"
     fill="#3c2513"
     id="path155" />
  <path
     d="m 326,365 c 1.32,0 2.64,0 4,0 0,0.66 0,1.32 0,2 -0.99,0.66 -1.98,1.32 -3,2 -0.72965,2.56283 -0.72965,2.56283 -1,5 -0.33,0 -0.66,0 -1,0 -0.0977,-6.15234 -0.0977,-6.15234 0,-8 0.33,-0.33 0.66,-0.66 1,-1 z"
     fill="#ad190d"
     id="path156" />
  <path
     d="m 251,187 c -2.64,1.98 -5.28,3.96 -8,6 0.75,-2.9375 0.75,-2.9375 2,-6 2.59051,-1.2143 3.43015,-1.28492 6,0 z"
     fill="#f7be5e"
     id="path157" />
  <path
     d="m 161,467 c 1.32,0 2.64,0 4,0 -0.33,0.99 -0.66,1.98 -1,3 -0.99,-0.33 -1.98,-0.66 -3,-1 0,2.31 0,4.62 0,7 -0.33,0 -0.66,0 -1,0 -0.0977,-6.15234 -0.0977,-6.15234 0,-8 0.33,-0.33 0.66,-0.66 1,-1 z"
     fill="#a7180b"
     id="path164" />
  <path
     d="m 330,207 c 0.66,0.66 1.32,1.32 2,2 -2.63904,1.41377 -5.07121,2.3724 -8,3 0.75,-1.9375 0.75,-1.9375 2,-4 2,-0.875 2,-0.875 4,-1 z"
     fill="#ebab49"
     id="path165" />
  <path
     d="m 329,189 c -1.65,1.32 -3.3,2.64 -5,4 0,-0.66 0,-1.32 0,-2 -1.98,0 -3.96,0 -6,0 0,-0.33 0,-0.66 0,-1 1.45627,-0.36257 2.91511,-0.7148 4.375,-1.0625 1.21816,-0.29584 1.21816,-0.29584 2.46094,-0.59766 C 327,188 327,188 329,189 Z"
     fill="#f4a840"
     id="path166" />
  <path
     d="m 252,132 c 0.66,0 1.32,0 2,0 0,0.99 0,1.98 0,3 1.32,-0.33 2.64,-0.66 4,-1 -1.32,1.32 -2.64,2.64 -4,4 -0.66,-0.33 -1.32,-0.66 -2,-1 0,-1.65 0,-3.3 0,-5 z"
     fill="#f5c25b"
     id="path167" />
</svg>
