<?xml version="1.0" encoding="UTF-8" standalone="no"?>
<!-- Uploaded to: SVG Repo, www.svgrepo.com, Transformed by: SVG Repo Mixer Tools -->

<svg
   width="50"
   height="50"
   viewBox="0 0 150 150"
   fill="none"
   version="1.1"
   id="svg1"
   sodipodi:docname="facebook-svgrepo-com.svg"
   inkscape:version="1.4 (86a8ad7, 2024-10-11)"
   xmlns:inkscape="http://www.inkscape.org/namespaces/inkscape"
   xmlns:sodipodi="http://sodipodi.sourceforge.net/DTD/sodipodi-0.dtd"
   xmlns="http://www.w3.org/2000/svg"
   xmlns:svg="http://www.w3.org/2000/svg">
  <defs
     id="defs1" />
  <sodipodi:namedview
     id="namedview1"
     pagecolor="#ffffff"
     bordercolor="#000000"
     borderopacity="0.25"
     inkscape:showpageshadow="2"
     inkscape:pageopacity="0.0"
     inkscape:pagecheckerboard="0"
     inkscape:deskcolor="#d1d1d1"
     inkscape:zoom="18.984375"
     inkscape:cx="31.973663"
     inkscape:cy="32"
     inkscape:window-width="2560"
     inkscape:window-height="1417"
     inkscape:window-x="2552"
     inkscape:window-y="-8"
     inkscape:window-maximized="1"
     inkscape:current-layer="svg1" />
  <g
     id="SVGRepo_bgCarrier"
     stroke-width="0"
     transform="matrix(0.93243243,0,0,0.9325576,-14.504173,-14.52553)" />
  <g
     id="SVGRepo_tracerCarrier"
     stroke-linecap="round"
     stroke-linejoin="round"
     transform="matrix(0.93243243,0,0,0.9325576,-14.504173,-14.52553)"
     style="stroke-width:1.07239" />
  <g
     id="SVGRepo_iconCarrier"
     transform="matrix(0.93243243,0,0,0.9325576,-14.504173,-14.52553)"
     style="stroke-width:1.07239">
    <path
       stroke="#ffffff"
       stroke-linecap="round"
       stroke-width="12.8688"
       d="m 96,170 c 40.869,0 74,-33.131 74,-74 0,-40.87 -33.131,-74 -74,-74 -40.87,0 -74,33.13 -74,74 0,40.869 33.13,74 74,74 z m 0,0 v -62 m 30,-48 h -10 c -11.046,0 -20,8.954 -20,20 v 28 m 0,0 H 74 m 22,0 h 22"
       id="path1" />
  </g>
</svg>
