<?xml version="1.0" encoding="UTF-8" standalone="no"?>
<!-- Uploaded to: SVG Repo, www.svgrepo.com, Transformed by: SVG Repo Mixer Tools -->

<svg
   width="50"
   height="50"
   viewBox="0 0 18.75 18.75"
   fill="none"
   version="1.1"
   id="svg1"
   sodipodi:docname="pinterest.svg"
   inkscape:version="1.4 (86a8ad7, 2024-10-11)"
   xmlns:inkscape="http://www.inkscape.org/namespaces/inkscape"
   xmlns:sodipodi="http://sodipodi.sourceforge.net/DTD/sodipodi-0.dtd"
   xmlns="http://www.w3.org/2000/svg"
   xmlns:svg="http://www.w3.org/2000/svg">
  <defs
     id="defs1" />
  <sodipodi:namedview
     id="namedview1"
     pagecolor="#ffffff"
     bordercolor="#000000"
     borderopacity="0.25"
     inkscape:showpageshadow="2"
     inkscape:pageopacity="0.0"
     inkscape:pagecheckerboard="0"
     inkscape:deskcolor="#d1d1d1"
     inkscape:zoom="13.42398"
     inkscape:cx="28.977992"
     inkscape:cy="37.284024"
     inkscape:window-width="2560"
     inkscape:window-height="1417"
     inkscape:window-x="2552"
     inkscape:window-y="-8"
     inkscape:window-maximized="1"
     inkscape:current-layer="svg1" />
  <g
     id="SVGRepo_bgCarrier"
     stroke-width="0"
     transform="matrix(0.93776238,0,0,0.93699229,0.03616801,0.188587)" />
  <g
     id="SVGRepo_tracerCarrier"
     stroke-linecap="round"
     stroke-linejoin="round"
     transform="matrix(0.93776238,0,0,0.93699229,0.03616801,0.188587)"
     style="stroke-width:0.995648" />
  <g
     id="SVGRepo_iconCarrier"
     transform="matrix(0.9379241,0,0,0.93801814,-1.8639028,-1.8537516)"
     style="stroke-width:0.995017">
    <path
       d="M 7.45203,13.1793 C 6.34409,10.9182 7.8519,6.51197 12.9239,7.23231 18.5104,8.02574 17.505,16.7096 12.8471,16.3704 11.3732,16.2631 10.8159,15.0417 10.6704,13.7938 m 0,0 c -0.1103,-0.946 0.0161,-1.9072 0.1592,-2.4096 0.2442,-0.8572 0.649,-0.7406 0.3532,0.3932 -0.144,0.5518 -0.3196,1.2445 -0.5124,2.0164 z m 0,0 c -0.5144,2.0599 -1.15047,4.6848 -1.63081,6.708 m 0,0 C 9.96672,20.8246 10.9629,21 12,21 c 4.9706,0 9,-4.0294 9,-9 0,-4.97056 -4.0294,-9 -9,-9 -4.97056,0 -9,4.02944 -9,9 0,3.9334 2.52335,7.2775 6.03959,8.5018 z"
       stroke="#ffffff"
       stroke-width="1.99004"
       stroke-linecap="round"
       stroke-linejoin="round"
       id="path1" />
  </g>
</svg>
