<?xml version="1.0" encoding="UTF-8" standalone="no"?>
<!-- Uploaded to: SVG Repo, www.svgrepo.com, Transformed by: SVG Repo Mixer Tools -->

<svg
   width="50"
   height="50"
   viewBox="0 0 18.75 18.75"
   fill="none"
   version="1.1"
   id="svg2"
   sodipodi:docname="tiktok-svgrepo-com.svg"
   inkscape:version="1.4 (86a8ad7, 2024-10-11)"
   xmlns:inkscape="http://www.inkscape.org/namespaces/inkscape"
   xmlns:sodipodi="http://sodipodi.sourceforge.net/DTD/sodipodi-0.dtd"
   xmlns="http://www.w3.org/2000/svg"
   xmlns:svg="http://www.w3.org/2000/svg">
  <defs
     id="defs2" />
  <sodipodi:namedview
     id="namedview2"
     pagecolor="#ffffff"
     bordercolor="#000000"
     borderopacity="0.25"
     inkscape:showpageshadow="2"
     inkscape:pageopacity="0.0"
     inkscape:pagecheckerboard="0"
     inkscape:deskcolor="#d1d1d1"
     inkscape:zoom="18.984375"
     inkscape:cx="31.973663"
     inkscape:cy="32"
     inkscape:window-width="2560"
     inkscape:window-height="1417"
     inkscape:window-x="2552"
     inkscape:window-y="-8"
     inkscape:window-maximized="1"
     inkscape:current-layer="svg2" />
  <g
     id="SVGRepo_bgCarrier"
     stroke-width="0"
     transform="matrix(0.95833333,0,0,0.95841146,-2.1242992,-2.1259374)" />
  <g
     id="SVGRepo_tracerCarrier"
     stroke-linecap="round"
     stroke-linejoin="round"
     transform="matrix(0.95833333,0,0,0.95841146,-2.1242992,-2.1259374)"
     style="stroke-width:1.04344" />
  <g
     id="SVGRepo_iconCarrier"
     transform="matrix(0.95833333,0,0,0.95841146,-2.1242992,-2.1259374)"
     style="stroke-width:1.04344">
    <path
       d="m 21,8 v 8 c 0,2.7614 -2.2386,5 -5,5 H 8 C 5.23858,21 3,18.7614 3,16 V 8 C 3,5.23858 5.23858,3 8,3 h 8 c 2.7614,0 5,2.23858 5,5 z"
       stroke="#ffffff"
       stroke-width="1.56515"
       stroke-linecap="round"
       stroke-linejoin="round"
       id="path1" />
    <path
       d="m 10,12 c -1.65685,0 -3,1.3431 -3,3 0,1.6569 1.34315,3 3,3 1.6569,0 3,-1.3431 3,-3 V 6 c 0.3333,1 1.6,3 4,3"
       stroke="#ffffff"
       stroke-width="1.56515"
       stroke-linecap="round"
       stroke-linejoin="round"
       id="path2" />
  </g>
</svg>
