<?xml version="1.0" encoding="UTF-8" standalone="no"?>
<!-- Uploaded to: SVG Repo, www.svgrepo.com, Transformed by: SVG Repo Mixer Tools -->

<svg
   width="50"
   height="50"
   viewBox="0 -0.5 19.53125 19.53125"
   fill="none"
   version="1.1"
   id="svg2"
   sodipodi:docname="youtube-svgrepo-com.svg"
   inkscape:version="1.4 (86a8ad7, 2024-10-11)"
   xmlns:inkscape="http://www.inkscape.org/namespaces/inkscape"
   xmlns:sodipodi="http://sodipodi.sourceforge.net/DTD/sodipodi-0.dtd"
   xmlns="http://www.w3.org/2000/svg"
   xmlns:svg="http://www.w3.org/2000/svg">
  <defs
     id="defs2" />
  <sodipodi:namedview
     id="namedview2"
     pagecolor="#ffffff"
     bordercolor="#000000"
     borderopacity="0.25"
     inkscape:showpageshadow="2"
     inkscape:pageopacity="0.0"
     inkscape:pagecheckerboard="0"
     inkscape:deskcolor="#d1d1d1"
     inkscape:zoom="18.984375"
     inkscape:cx="31.973663"
     inkscape:cy="32"
     inkscape:window-width="2560"
     inkscape:window-height="1417"
     inkscape:window-x="2552"
     inkscape:window-y="-8"
     inkscape:window-maximized="1"
     inkscape:current-layer="svg2" />
  <g
     id="SVGRepo_bgCarrier"
     stroke-width="0"
     transform="matrix(0.91366093,0,0,1.2817372,-1.5341523,-6.1587078)" />
  <g
     id="SVGRepo_tracerCarrier"
     stroke-linecap="round"
     stroke-linejoin="round"
     transform="matrix(0.91366093,0,0,1.2817372,-1.5341523,-6.1587078)"
     style="stroke-width:0.924077" />
  <g
     id="SVGRepo_iconCarrier"
     transform="matrix(0.91366093,0,0,1.2817372,-1.5341523,-6.1587078)"
     style="stroke-width:0.924077">
    <path
       fill-rule="evenodd"
       clip-rule="evenodd"
       d="M 18.168,19.0028 C 20.4724,19.0867 22.41,17.29 22.5,14.9858 V 9.01982 C 22.41,6.71569 20.4724,4.91893 18.168,5.00282 H 6.832 C 4.52763,4.91893 2.58998,6.71569 2.5,9.01982 v 5.96598 c 0.08998,2.3042 2.02763,4.1009 4.332,4.017 z"
       stroke="#ffffff"
       stroke-width="1.38612"
       stroke-linecap="round"
       stroke-linejoin="round"
       id="path1" />
    <path
       fill-rule="evenodd"
       clip-rule="evenodd"
       d="m 12.008,9.17784 3.161,2.14796 c 0.2048,0.1196 0.3307,0.3389 0.3307,0.576 0,0.2372 -0.1259,0.4565 -0.3307,0.576 l -3.161,2.35 c -0.6,0.407 -1.508,0.06 -1.508,-0.576 V 9.75184 c 0,-0.633 0.909,-0.981 1.508,-0.574 z"
       stroke="#ffffff"
       stroke-width="1.38612"
       stroke-linecap="round"
       stroke-linejoin="round"
       id="path2" />
  </g>
</svg>
